<?xml version="1.0" encoding="UTF-8" standalone="no"?>
<!-- Created with Inkscape (http://www.inkscape.org/) -->

<svg
   width="38mm"
   height="45mm"
   viewBox="0 0 38 45"
   version="1.1"
   id="svg1"
   xml:space="preserve"
   inkscape:version="1.3 (0e150ed6c4, 2023-07-21)"
   sodipodi:docname="dessin3.svg"
   xmlns:inkscape="http://www.inkscape.org/namespaces/inkscape"
   xmlns:sodipodi="http://sodipodi.sourceforge.net/DTD/sodipodi-0.dtd"
   xmlns="http://www.w3.org/2000/svg"
   xmlns:svg="http://www.w3.org/2000/svg"><sodipodi:namedview
     id="namedview1"
     pagecolor="#ffffff"
     bordercolor="#000000"
     borderopacity="0.25"
     inkscape:showpageshadow="2"
     inkscape:pageopacity="0.0"
     inkscape:pagecheckerboard="0"
     inkscape:deskcolor="#d1d1d1"
     inkscape:document-units="mm"
     showguides="false"
     inkscape:zoom="1.3843855"
     inkscape:cx="320.71991"
     inkscape:cy="307.35658"
     inkscape:window-width="2400"
     inkscape:window-height="1261"
     inkscape:window-x="2391"
     inkscape:window-y="-9"
     inkscape:window-maximized="1"
     inkscape:current-layer="g6"
     inkscape:lockguides="false" /><defs
     id="defs1"><clipPath
       id="SvgjsClipPath1002"><path
         d="M 0.81687411,-7.7557604 H 7.0929962 V -0.25 H 0.81687411 Z"
         id="path6" /></clipPath><clipPath
       id="a39345484-a7d9-4c0e-aaa4-118612680802f2669346-4069-4d0d-a339-6b0cc17258f5"><path
         d="M 0.81385546,-0.25000375 H 7.0929999 V -7.755764 H 0.81385546 Z"
         id="path7" /></clipPath><clipPath
       id="SvgjsClipPath1002-8"><path
         d="M 0.81687411,-7.7557604 H 7.0929962 V -0.25 H 0.81687411 Z"
         id="path6-4" /></clipPath><clipPath
       id="a39345484-a7d9-4c0e-aaa4-118612680802f2669346-4069-4d0d-a339-6b0cc17258f5-1"><path
         d="M 0.81385546,-0.25000375 H 7.0929999 V -7.755764 H 0.81385546 Z"
         id="path7-8" /></clipPath><clipPath
       id="clipPath1"><path
         d="M 0.81385546,-0.25000375 H 7.0929999 V -7.755764 H 0.81385546 Z"
         id="path1-1" /></clipPath><clipPath
       id="SvgjsClipPath1002-0"><path
         d="M 0.81687411,-7.7557604 H 7.0929962 V -0.25 H 0.81687411 Z"
         id="path6-2" /></clipPath><clipPath
       id="a39345484-a7d9-4c0e-aaa4-118612680802f2669346-4069-4d0d-a339-6b0cc17258f5-8"><path
         d="M 0.81385546,-0.25000375 H 7.0929999 V -7.755764 H 0.81385546 Z"
         id="path7-2" /></clipPath><clipPath
       id="clipPath1-4"><path
         d="M 0.81385546,-0.25000375 H 7.0929999 V -7.755764 H 0.81385546 Z"
         id="path1-0" /></clipPath><clipPath
       id="SvgjsClipPath1002-0-5"><path
         d="M 0.81687411,-7.7557604 H 7.0929962 V -0.25 H 0.81687411 Z"
         id="path6-2-6" /></clipPath><clipPath
       id="a39345484-a7d9-4c0e-aaa4-118612680802f2669346-4069-4d0d-a339-6b0cc17258f5-8-4"><path
         d="M 0.81385546,-0.25000375 H 7.0929999 V -7.755764 H 0.81385546 Z"
         id="path7-2-1" /></clipPath><clipPath
       id="clipPath1-6"><path
         d="M 0.81385546,-0.25000375 H 7.0929999 V -7.755764 H 0.81385546 Z"
         id="path1-06" /></clipPath><clipPath
       id="SvgjsClipPath1002-9"><path
         d="M 0.81687411,-7.7557604 H 7.0929962 V -0.25 H 0.81687411 Z"
         id="path6-3" /></clipPath><clipPath
       id="a39345484-a7d9-4c0e-aaa4-118612680802f2669346-4069-4d0d-a339-6b0cc17258f5-0"><path
         d="M 0.81385546,-0.25000375 H 7.0929999 V -7.755764 H 0.81385546 Z"
         id="path7-7" /></clipPath></defs><g
     inkscape:label="Calque 1"
     inkscape:groupmode="layer"
     id="layer1"><g
       transform="matrix(5.8525988,0,0,5.7627594,29.124586,64.286735)"
       id="g6"><g
         id="g2" /><g
         clip-path="url(#SvgjsClipPath1002-9)"
         id="g5"
         transform="translate(-5.649406,-3.2169676)"><g
           clip-path="url(#a39345484-a7d9-4c0e-aaa4-118612680802f2669346-4069-4d0d-a339-6b0cc17258f5-0)"
           id="g3"><path
             d="m 6.5618444,-0.4174434 c -0.059983,0.0365238 -0.1117915,0.0680603 -0.15682,0.0770075 -0.1422555,0.0283041 -0.2916207,-0.0827149 -0.3332219,-0.11665878 -0.08951,-0.0806899 -0.185814,-0.11359887 -0.2887783,-0.11949368 -0.1023417,-0.005857 -0.2105182,0.015067 -0.3250246,0.0418562 -0.055573,0.0130046 -0.098734,0.0163195 -0.1315458,0.0125621 l 0.00737,-0.0154495 c 0.022312,-0.0468285 0.046469,-0.0975194 0.078298,-0.14154298 0.07007,-0.0969194 -0.018494,-0.17024457 -0.109204,-0.10224424 -0.042291,0.031904 -0.078815,0.0881972 -0.090132,0.14206796 -0.012915,0.061513 0.00752,0.1160288 0.070183,0.1378906 -0.00769,0.015082 -0.01539,0.0291441 -0.023317,0.0416537 -0.037049,0.0584981 -0.082422,0.0854448 -0.1702971,0.0298191 -0.1843366,-0.11668128 -0.3637684,-0.1692021 -0.5385278,-0.19269135 0.4595028,-0.1158938 0.9147458,-0.2630541 1.1707951,-0.39986473 0.2902107,-0.155065 0.4156517,-0.3640309 0.4213291,-0.5479475 0.00502,-0.1627073 -0.084042,-0.3043028 -0.2307677,-0.3737355 -0.1743694,-0.082527 -0.4339211,-0.066328 -0.7287142,0.1341332 -0.07004,0.047631 -0.1345157,0.096694 -0.1972062,0.1465078 9e-5,-0.1161863 -0.029707,-0.2302576 -0.070565,-0.3383217 -0.040011,-0.1058591 -0.09149,-0.2067084 -0.1393081,-0.2918457 -0.056188,-0.1000243 -0.08225,-0.1907714 -0.08432,-0.2818785 -0.00207,-0.091497 0.019949,-0.1840291 0.059893,-0.2871133 0.069365,-0.1789893 0.1122789,-0.3220397 0.1404255,-0.4646777 0.028124,-0.1425104 0.041489,-0.2846159 0.051748,-0.4618202 0.018847,-0.3253771 0.1308034,-0.5760041 0.2470122,-0.8361633 0.123251,-0.2759162 0.2512644,-0.562482 0.280131,-0.9605618 0.01155,-0.1592874 -0.01278,-0.2529145 -0.141213,-0.3557362 C 5.1787535,-6.0629481 4.9803474,-6.3205199 4.7730315,-6.4397511 4.631871,-6.520936 4.4865257,-6.6045283 4.3484101,-6.6949604 4.1546013,-6.8218639 4.1376218,-7.0174801 4.1131726,-7.2993661 c -0.00553,-0.063838 -0.011452,-0.1320633 -0.019979,-0.2057559 -0.011602,-0.1002868 -0.033359,-0.172757 -0.059503,-0.2088759 -0.026302,-0.036329 -0.061431,-0.040986 -0.091512,-0.00572 -0.026647,0.031222 -0.052423,0.098209 -0.072868,0.2068584 -0.00905,0.048081 -0.016784,0.094489 -0.024337,0.139788 -0.044878,0.2690765 -0.083307,0.4995066 -0.3287595,0.6821783 -0.1170637,0.087132 -0.2388673,0.170522 -0.3608809,0.2540543 -0.2162406,0.1480453 -0.4331712,0.440041 -0.6293649,0.613398 -0.1154738,0.1020192 -0.1276834,0.1824016 -0.097759,0.3295094 0.042771,0.2102708 0.1055291,0.4002622 0.1862415,0.578914 0.08072,0.1786593 0.1793568,0.345964 0.2939307,0.5108462 0.098427,0.1417155 0.1570149,0.2529594 0.1930438,0.3706157 0.036089,0.1178587 0.049813,0.2429847 0.058423,0.4121193 0.00959,0.188559 0.023617,0.4364186 0.1768369,0.5700343 0.050781,0.2026885 0.06467,0.3347518 0.055438,0.4363361 -0.00922,0.1015242 -0.041931,0.1735594 -0.083967,0.2562143 -0.034956,0.068735 -0.057366,0.1488927 -0.01668,0.2200805 -0.08678,0.032616 -0.1346432,0.1114764 -0.1623323,0.1963437 -0.044849,0.1374556 -0.080405,0.2058834 -0.1363606,0.2327026 l -0.00382,0.00174 c -0.095029,-0.055468 -0.1923014,-0.1031667 -0.2948081,-0.1367956 -0.2858759,-0.093792 -0.517851,-0.062968 -0.6652813,0.032414 -0.1254184,0.081133 -0.1962987,0.2145607 -0.1733044,0.3646609 0.022162,0.1446029 0.1313058,0.298393 0.3481614,0.4195141 0.1757194,0.0981419 0.3949374,0.15792996 0.6224876,0.18246918 0.1147688,0.0123746 0.2317126,0.0157945 0.3463314,0.0106572 0.064138,0.0217643 0.126251,0.0480435 0.1849741,0.0821524 0.2462172,0.14293044 0.5021315,0.14218796 0.7694304,0.14141549 0.078725,-2.325e-4 0.158455,-4.4999e-4 0.2391674,0.003052 -0.4639502,0.10869403 -0.9061361,0.17967176 -1.1212667,0.1690896 -0.1831516,-0.009015 -0.3496388,0.0220493 -0.4928242,0.0487559 -0.1447004,0.0269991 -0.3620135,0.0882497 -0.4535406,-0.0663879 0.061641,-0.0334189 0.1076066,-0.10203424 0.1344782,-0.23267257 0.01107,-0.0538108 0.00457,-0.095307 -0.011887,-0.12238859 -0.018277,-0.0300665 -0.049768,-0.0440911 -0.084222,-0.0359164 -0.028349,0.006712 -0.058236,0.0285441 -0.082895,0.0668829 -0.030854,0.0480585 -0.040446,0.10505665 -0.036434,0.16161984 0.00362,0.0510509 0.018404,0.10192174 0.038571,0.14539036 -0.068368,0.0246367 -0.1546676,0.0130421 -0.2543244,-3.5999e-4 -0.1298958,-0.0174669 -0.281436,-0.0376038 -0.4464382,0.00912 l -7.5e-5,-2.4e-4 c -0.00156,5.0249e-4 -0.00305,0.001042 -0.0046,0.001552 -0.051313,0.0147445 -0.171152,0.0676478 -0.2249478,0.0925471 -0.074053,0.0342589 -0.1380031,0.0638605 -0.1970787,0.0747426 -0.1101865,0.0202419 -0.28895827,-0.0352114 -0.29075071,-0.0357664 l -0.009097,0.0289191 c 0.006375,0.002002 0.13399072,0.0416462 0.24439471,0.0416462 0.021284,0 0.041939,-0.001477 0.060951,-0.00498 0.062848,-0.0115796 0.1284109,-0.0419087 0.2043235,-0.077045 0.065795,-0.030449 0.140373,-0.0649554 0.2261703,-0.0927795 l -6e-5,-2.0249e-4 c 0.1588899,-0.0446311 0.3065902,-0.0250042 0.4332461,-0.007965 0.1069166,0.0143771 0.1995912,0.0268192 0.2733213,1.35e-4 0.099342,0.17601938 0.3255271,0.11345638 0.486277,0.0834648 0.1416255,-0.0264217 0.3062902,-0.0571407 0.486037,-0.0482985 0.232335,0.0114371 0.7238468,-0.0705202 1.2235409,-0.19230136 0.1965837,0.0174819 0.3988297,0.0656979 0.6064756,0.1971387 0.1083116,0.0685553 0.1648522,0.0343714 0.2114258,-0.0391637 0.00972,-0.0153295 0.018824,-0.032219 0.027824,-0.0501584 0.037874,0.006127 0.087755,0.003472 0.1520576,-0.0115796 0.1122864,-0.0262717 0.2180855,-0.0467985 0.3166099,-0.0411587 0.092105,0.005272 0.1785093,0.0336439 0.2591017,0.10198924 l -4.8e-4,5.3249e-4 c 0.00688,0.006255 0.1547351,0.13882056 0.3167824,0.13882056 0.017932,0 0.036051,-0.001635 0.054163,-0.005227 0.050286,-0.009997 0.1042317,-0.0428236 0.1666747,-0.0808624 0.1219761,-0.0742626 0.2737862,-0.16668218 0.5034589,-0.16668218 v -0.030329 c -0.2381699,0 -0.4006222,0.0989068 -0.5192384,0.17112204 m -4.3145245,-0.204123 c -0.0036,-0.0506609 0.00475,-0.10133677 0.031762,-0.14340292 0.020144,-0.031319 0.043356,-0.0488684 0.06467,-0.0539158 0.021884,-0.005182 0.040274,0.00318 0.051861,0.0222518 0.012847,0.0211418 0.01758,0.0551682 0.00815,0.10100677 -0.023939,0.11637379 -0.065135,0.1784493 -0.1204987,0.20925082 -0.018794,-0.0404012 -0.032579,-0.0877172 -0.035946,-0.13519068 M 3.3304076,-3.8655183 c 0.041069,-0.2272502 0.1266259,-0.4407384 0.2525094,-0.6335872 0.00934,0.045666 0.00885,0.099627 -0.00334,0.1665096 -0.041076,0.2255778 0.039914,0.3762255 0.1657672,0.4571704 0.08363,0.053796 0.1870366,0.076423 0.2873759,0.06953 0.1004517,-0.00689 0.1981286,-0.043416 0.2701563,-0.1078915 0.1037967,-0.092915 0.1542926,-0.2429473 0.083615,-0.4448258 -0.071323,-0.203716 -0.089082,-0.3592761 -0.07148,-0.5051764 0.017654,-0.1463053 0.07094,-0.2837684 0.1414905,-0.4504581 0.051816,-0.1224111 0.031274,-0.1802792 0.00934,-0.2420848 -0.018202,-0.051306 -0.024412,-0.050143 -0.023407,-0.1045916 0.00185,-0.0965 0.00471,-0.2450472 -0.055296,-0.3683958 -0.034304,-0.070513 -0.08897,-0.1276459 -0.15472,-0.1625273 -0.063095,-0.033471 -0.1364132,-0.046619 -0.2118308,-0.031484 -0.049581,0.00996 -0.094002,0.024734 -0.1460353,0.020219 -0.07715,-0.0067 -0.1401855,0.00439 -0.1921739,0.031597 -0.052153,0.027299 -0.092599,0.070528 -0.124466,0.1280584 -0.06758,0.1219986 -0.061618,0.1901789 -0.054508,0.3070252 0.00451,0.074128 0.0064,0.1211436 -0.00573,0.1958487 -0.012585,0.07745 -0.023527,0.1447304 0.047728,0.2303177 0.018892,0.022672 0.040506,0.043169 0.060666,0.064738 0.00659,0.087965 0.023542,0.172637 0.062495,0.2726988 0.028957,0.07439 0.039741,0.1353182 0.031079,0.1939288 -0.00868,0.058731 -0.037004,0.1160888 -0.086202,0.1832641 -0.0067,0.00915 -0.013321,0.018372 -0.019852,0.027652 C 3.5467382,-4.67232 3.4250396,-4.7464626 3.3336775,-4.8112306 3.1360363,-4.9510561 3.0897628,-5.0551903 3.01865,-5.2152352 2.991096,-5.2772582 2.959867,-5.3475309 2.9151758,-5.4310183 c -0.048741,-0.091047 -0.055438,-0.1542776 0.028912,-0.2253753 0.1038642,-0.08756 0.1928114,-0.2840009 0.2853734,-0.3772454 0.1526201,-0.1537601 0.3157774,-0.3240047 0.5716242,-0.5044339 0.1134339,-0.08 0.1713396,-0.1325658 0.2857784,-0.050983 0.1478578,0.1054091 0.3004029,0.2134057 0.4362086,0.3244246 0.1362856,0.1114165 0.2542644,0.3550837 0.38977,0.4763398 0.1038867,0.092952 0.1109215,0.2056285 0.072545,0.3343019 -0.033801,0.1134788 -0.073145,0.2237928 -0.099822,0.3396566 -0.035961,0.1561525 -0.092442,0.2146282 -0.1992161,0.3276945 -0.2164206,0.2291627 -0.08639,0.5189235 -0.00344,0.7738028 0.037409,0.1149114 0.069283,0.2554419 0.079677,0.3961449 0.010147,0.1373731 -1.65e-4,0.2747312 -0.045846,0.3880601 -0.069673,0.1728545 -0.2071959,0.2540094 -0.3862002,0.2672089 -0.1041051,0.00761 -0.2084227,0.011965 -0.3128,0.013057 -0.097129,9.9e-4 -0.1965687,-9.449e-4 -0.2919731,-0.00686 C 3.5560549,-2.9657468 3.4413385,-3.0036728 3.363311,-3.0680661 3.293998,-3.3447323 3.284901,-3.6136662 3.33041,-3.8655157 m 0.2758337,-0.6684011 c 0.010202,-0.01485 0.020625,-0.029546 0.031266,-0.044084 0.052138,-0.071173 0.08225,-0.1326408 0.091692,-0.1965762 0.00946,-0.064048 -0.00194,-0.1296484 -0.032826,-0.2089959 -0.031454,-0.08078 -0.048111,-0.1515326 -0.056496,-0.2226229 0.021854,0.028319 0.042044,0.061903 0.056458,0.1049217 0.016807,0.050151 0.035451,0.092247 0.063718,0.1306758 0.028319,0.038519 0.06602,0.1111015 0.1207761,0.1457654 0.035346,0.022372 0.073978,0.036966 0.1153313,0.037994 0.041451,0.00103 0.08513,-0.011557 0.1302409,-0.043559 0.050271,-0.035661 0.085805,-0.108184 0.1128639,-0.1468078 0.027022,-0.038594 0.045284,-0.08099 0.061093,-0.1327907 0.051613,-0.1643048 0.076055,-0.2540019 0.054373,-0.4288288 -0.00703,-0.056616 -0.013935,-0.081267 -0.025214,-0.1336458 -0.011362,-0.052716 -0.027127,-0.072815 -0.051808,-0.1200861 -0.097504,-0.1867366 -0.264749,-0.1575025 -0.4403934,-0.1345157 -0.2266653,0.029721 -0.2292827,0.1823716 -0.2313376,0.3635209 -2.95e-4,0.024972 -7.55e-4,0.049942 -0.00138,0.074908 -0.00178,0.07271 -0.00334,0.1365706 -0.00106,0.1974312 -0.012772,-0.013147 -0.024907,-0.025709 -0.035226,-0.038084 -0.06254,-0.075118 -0.052611,-0.1361957 -0.041181,-0.2064984 0.012465,-0.07673 0.01071,-0.09641 0.00607,-0.1725695 -0.00683,-0.1121964 -0.012555,-0.2062959 0.050766,-0.3206073 0.029092,-0.052506 0.06557,-0.091737 0.1122039,-0.1161488 0.046814,-0.024502 0.1044567,-0.034401 0.1758094,-0.028214 0.056398,0.0049 0.1011268,-0.010095 0.1544501,-0.020797 0.06821,-0.013695 0.1346732,-0.00172 0.1919713,0.028679 0.060246,0.031964 0.110374,0.08438 0.1418655,0.1491027 0.056946,0.1170638 0.054171,0.2612767 0.052371,0.3549562 -0.00107,0.058476 0.00553,0.059991 0.025042,0.1149863 0.019964,0.056241 0.038646,0.1088965 -0.00863,0.220598 -0.071555,0.1690821 -0.125636,0.3086751 -0.1437104,0.4585203 -0.018134,0.1502502 -7.5e-6,0.3099651 0.072995,0.518496 0.065983,0.1884614 0.020024,0.3274695 -0.07532,0.4128168 -0.06689,0.059886 -0.15814,0.093844 -0.252277,0.1003018 -0.094264,0.00648 -0.1911764,-0.014625 -0.2692639,-0.064858 -0.1163813,-0.074848 -0.1910789,-0.2153031 -0.1525601,-0.4268038 0.015674,-0.086052 0.013657,-0.1520652 -0.00267,-0.2065809 m 0.028911,-0.7241019 c -0.00467,-0.070603 -0.00287,-0.1439654 -7.574e-4,-0.2299277 6.075e-4,-0.025139 0.00109,-0.050226 0.00137,-0.075373 0.00191,-0.1692095 0.00438,-0.3078426 0.2054035,-0.3342043 0.1587099,-0.020774 0.3214022,-0.051171 0.4101394,0.1187512 0.023197,0.044429 0.038136,0.062075 0.048996,0.1124964 0.010935,0.050766 0.017782,0.074923 0.024742,0.1310733 0.021037,0.1695771 -0.00314,0.2572193 -0.053203,0.4165667 -0.014917,0.048876 -0.031979,0.088647 -0.057006,0.1243761 -0.024989,0.035684 -0.058273,0.1058966 -0.1057316,0.1395705 -0.039396,0.027944 -0.07697,0.038954 -0.1122414,0.038069 C 3.9614852,-4.8174985 3.9278712,-4.830346 3.8967249,-4.850062 3.8453819,-4.882566 3.8102529,-4.9527038 3.784131,-4.9882301 3.757934,-5.0238391 3.740482,-5.0633851 3.724613,-5.1107312 3.702571,-5.1765112 3.6688,-5.2211427 3.635156,-5.258019 m -0.4776179,3.324814 c 0.025619,-0.078545 0.069545,-0.1528526 0.1515927,-0.1801142 0.023564,0.028604 0.056256,0.052026 0.094324,0.072583 0.1369007,0.073918 0.3340994,0.1309684 0.5521249,0.1477078 0.1867665,0.014332 0.3891176,-8.849e-4 0.5822739,-0.060396 0.072583,-0.022357 0.1123314,-0.065518 0.1242111,-0.1060767 0.00826,-0.028214 0.00394,-0.058933 -0.017699,-0.080082 -0.020947,-0.020482 -0.056143,-0.029542 -0.1027242,-0.016545 -0.1915589,0.053473 -0.3696257,0.07121 -0.547565,0.067625 -0.1782543,-0.00359 -0.3568986,-0.028634 -0.5489825,-0.060606 -0.046588,-0.00775 -0.087807,-0.00698 -0.1241735,0.00145 -0.039959,-0.062563 -0.017302,-0.1363382 0.013882,-0.1976487 0.043446,-0.085437 0.077278,-0.1600974 0.087005,-0.2670815 0.00896,-0.098667 -0.00291,-0.2240553 -0.047264,-0.4099669 0.081065,0.054681 0.1932163,0.087222 0.3494663,0.096897 0.095615,0.00593 0.1957663,0.00787 0.2939606,0.00686 0.111109,-0.00113 0.2190455,-0.006 0.3146675,-0.013057 0.1907189,-0.014055 0.3377067,-0.1020792 0.4117893,-0.2858909 0.047563,-0.1180012 0.058386,-0.2598892 0.047946,-0.4012522 -0.010582,-0.1433279 -0.043019,-0.2863633 -0.081072,-0.4032621 -0.0785,-0.2411773 -0.2081409,-0.5271656 -0.00322,-0.7441562 0.1106739,-0.1171913 0.1692771,-0.1795218 0.2065734,-0.3414641 0.026504,-0.1150838 0.06575,-0.2250078 0.099357,-0.3377892 0.041751,-0.139968 0.031461,-0.2641041 -0.081305,-0.3650209 -0.1368631,-0.122471 -0.2553593,-0.3666257 -0.390715,-0.4772772 -0.1358282,-0.1110415 -0.2888533,-0.219383 -0.437836,-0.3255871 -0.124781,-0.088955 -0.1965388,-0.036381 -0.3202548,0.050863 -0.2578643,0.1818617 -0.422034,0.3531187 -0.5755841,0.5078162 -0.09203,0.092712 -0.1804593,0.2886283 -0.2835135,0.375498 -0.095682,0.080668 -0.091467,0.1584025 -0.035916,0.2621692 0.044384,0.082925 0.075275,0.1524401 0.1025367,0.2137956 0.073138,0.1645973 0.1207312,0.2716939 0.3250771,0.4162668 0.092517,0.065953 0.2157006,0.139173 0.2557794,0.249892 -0.1358882,0.2017585 -0.2278653,0.4264514 -0.2711989,0.6662787 -0.043739,0.2420248 -0.037926,0.4993265 0.022229,0.7638731 C 3.2105614,-3.2357484 3.1979168,-3.4601787 3.1896371,-3.6229535 3.1809149,-3.7943381 3.1669053,-3.9214515 3.129939,-4.0421976 3.0869129,-4.1827056 3.0158826,-4.3010444 2.9328903,-4.4212055 2.8193064,-4.5847153 2.721562,-4.750475 2.6416746,-4.9272819 2.5617871,-5.1041112 2.4996966,-5.2920477 2.457413,-5.4998961 2.429694,-5.6361892 2.438679,-5.7065745 2.545715,-5.801139 c 0.1908914,-0.1686771 0.4028047,-0.4541555 0.6144554,-0.6025307 -1.125e-4,-1.125e-4 0.00364,-0.00281 0.011985,-0.00853 -0.00399,0.00274 -0.00799,0.00573 -0.011985,0.00853 7.35e-4,7.35e-4 0.1667872,-0.109204 0.3738031,-0.2632791 0.2551718,-0.1899089 0.2945156,-0.4257839 0.3404441,-0.7012201 0.00759,-0.045531 0.015367,-0.092165 0.024217,-0.1392031 0.019417,-0.1031967 0.042741,-0.1654597 0.066208,-0.1929613 0.017272,-0.020242 0.029849,-0.016605 0.044669,0.00386 0.023287,0.032166 0.043004,0.099619 0.054006,0.1947313 0.00835,0.07226 0.014302,0.140808 0.019867,0.2049459 0.025192,0.2904207 0.042689,0.4919543 0.2486696,0.6268225 0.1373281,0.08993 0.2838434,0.1741894 0.4261439,0.2560268 0.2061459,0.1185562 0.4034196,0.375483 0.5531823,0.4954942 0.1206187,0.096567 0.140943,0.1809617 0.1301134,0.3303944 -0.028499,0.392935 -0.1553951,0.6770109 -0.2775662,0.9505122 -0.1173562,0.2627316 -0.2304151,0.515826 -0.249577,0.8466779 -0.010177,0.1756594 -0.023422,0.3165124 -0.051283,0.4577329 -0.027847,0.141093 -0.070303,0.2825985 -0.1389105,0.4596453 -0.041294,0.1065641 -0.06404,0.2026586 -0.061873,0.298453 0.00218,0.096192 0.029407,0.1914689 0.088055,0.2958956 0.047286,0.084185 0.098119,0.1837366 0.1374406,0.2877508 0.043154,0.1141163 0.072043,0.2293126 0.068315,0.3519337 -0.025945,0.020911 -0.051824,0.041903 -0.077638,0.062976 -0.2051109,0.1671022 -0.4147742,0.3378867 -0.7630481,0.4829471 -0.06067,-0.011108 -0.1203461,-0.027087 -0.1784493,-0.047781 -0.234015,-0.083397 -0.436501,-0.2237553 -0.6340147,-0.3606635 -0.09473,-0.06566 -0.1883265,-0.1305333 -0.283881,-0.188154 0.057193,-0.034641 0.094257,-0.107569 0.1384756,-0.2430747 m 0.1844041,-0.188139 c 0.029144,-0.00478 0.06179,-0.00439 0.098247,0.00167 0.1930813,0.032136 0.3728806,0.057313 0.5533023,0.060943 0.1807217,0.00364 0.361571,-0.014362 0.5560997,-0.068668 0.034994,-0.00976 0.060058,-0.00431 0.073865,0.00919 0.013612,0.013312 0.015104,0.032924 0.00998,0.050421 -0.00941,0.032121 -0.042629,0.066853 -0.1043517,0.085865 -0.1892565,0.058311 -0.3878201,0.073198 -0.5712868,0.059113 -0.2137656,-0.016409 -0.4066595,-0.072103 -0.5402077,-0.1442054 -0.029729,-0.01605 -0.055708,-0.033771 -0.07565,-0.054328 m 1.6119085,0.5219983 c -0.00486,0.059001 -0.016372,0.1125415 -0.033599,0.1608399 -0.044226,0.123971 -0.126386,0.2134732 -0.2303401,0.2725038 -0.1047267,0.059473 -0.2316601,0.088242 -0.3644434,0.09035 -0.050878,8.025e-4 -0.1026117,-0.00231 -0.1542926,-0.0091 0.3255046,-0.1422329 0.5278932,-0.3071227 0.7260893,-0.4686 0.018869,-0.015367 0.037701,-0.030704 0.056586,-0.045989 M 2.8293786,-0.87539378 C 2.6055557,-0.89952801 2.3902901,-0.95813863 2.2182231,-1.0542406 2.0103447,-1.1703444 1.9059931,-1.3160122 1.8851362,-1.4521479 c -0.021209,-0.138423 0.044451,-0.2604966 0.1599849,-0.3352317 0.140523,-0.090905 0.3633409,-0.1197337 0.6398121,-0.029024 0.090995,0.029856 0.1781268,0.071248 0.2634366,0.1194937 -0.053368,0.00748 -0.125411,-0.00454 -0.2289602,-0.023984 -0.1928338,-0.036186 -0.3434065,-0.00807 -0.4405434,0.055978 -0.1003768,0.066185 -0.1472728,0.173417 -0.1177013,0.2912982 0.025319,0.1009543 0.1067516,0.2072034 0.2528544,0.2957831 0.1513602,0.0917746 0.3201948,0.1311783 0.4880395,0.17034955 0.060658,0.0141596 0.1211961,0.0282966 0.1805942,0.0448561 -0.084598,5.0843e-4 -0.1691566,-0.003753 -0.2532744,-0.0127646 m 0.079452,-0.0611755 C 2.7431538,-0.97523809 2.5765017,-1.0141318 2.4294464,-1.103289 2.2906858,-1.1874213 2.2136857,-1.2869956 2.1901365,-1.3808626 c -0.026467,-0.1054992 0.015329,-0.1999961 0.1050941,-0.2591768 0.091145,-0.060103 0.2340526,-0.086195 0.4186892,-0.051538 0.1277284,0.023977 0.2098958,0.036989 0.2722113,0.016522 0.1009768,0.059743 0.1997861,0.1282309 0.2998704,0.1976037 0.1991636,0.1380555 0.4033371,0.2795835 0.641027,0.3642933 0.045265,0.016116 0.091475,0.02944 0.1383706,0.039899 -0.1492002,0.058836 -0.3230747,0.11305143 -0.5310505,0.16058491 -0.1123014,0.0256642 -0.2334151,0.0416837 -0.3574311,0.0475485 -0.087147,-0.0292122 -0.1774743,-0.050294 -0.2680865,-0.0714433 m 1.5560278,0.30449777 c -0.1146413,-0.009847 -0.2272502,-0.009532 -0.3379017,-0.00921 -0.2631666,7.6497e-4 -0.515136,0.001492 -0.7544684,-0.13744061 -0.040709,-0.0236468 -0.082812,-0.0435811 -0.1259209,-0.0608756 0.1019217,-0.00792 0.201166,-0.0226793 0.2944406,-0.0440011 0.2297401,-0.0524983 0.4182091,-0.11308139 0.5779465,-0.17900437 0.069043,0.01206 0.1387306,0.017812 0.2069859,0.016725 0.1376206,-0.00218 0.2694814,-0.032174 0.3786929,-0.094197 0.1099915,-0.062458 0.1969437,-0.15721 0.2437797,-0.2885083 0.020722,-0.058086 0.033524,-0.123341 0.036936,-0.1961261 0.068525,-0.054898 0.1385806,-0.1088741 0.2148307,-0.1607349 0.2847734,-0.1936439 0.5334354,-0.2102859 0.6992701,-0.1318008 0.1362407,0.064475 0.2183706,0.1948438 0.2137132,0.3459564 -0.00538,0.1742045 -0.126101,0.3731581 -0.405557,0.5224784 -0.2624992,0.14025296 -0.7378865,0.29189812 -1.2112414,0.40900688 z m 0.8419832,0.0816049 -0.010552,0.0220568 c -0.050473,-0.016132 -0.06452,-0.0561657 -0.054291,-0.10484665 0.00989,-0.047121 0.041871,-0.0963719 0.078898,-0.12434603 0.061926,-0.046566 0.1184212,-0.0100197 0.067048,0.0610406 -0.033697,0.046596 -0.058341,0.0983144 -0.081102,0.14609534"
             fill="#004a80"
             fill-rule="nonzero"
             id="path2" /></g><g
           clip-path="url(#a39345484-a7d9-4c0e-aaa4-118612680802f2669346-4069-4d0d-a339-6b0cc17258f5-0)"
           id="g4"><path
             d="m 6.5618444,-0.4174434 c -0.059983,0.0365238 -0.1117915,0.0680603 -0.15682,0.0770075 -0.1422555,0.0283041 -0.2916207,-0.0827149 -0.3332219,-0.11665878 -0.08951,-0.0806899 -0.185814,-0.11359887 -0.2887783,-0.11949368 -0.1023417,-0.005857 -0.2105182,0.015067 -0.3250246,0.0418562 -0.055573,0.0130046 -0.098734,0.0163195 -0.1315458,0.0125621 l 0.00737,-0.0154495 c 0.022312,-0.0468285 0.046469,-0.0975194 0.078298,-0.14154298 0.07007,-0.0969194 -0.018494,-0.17024457 -0.109204,-0.10224424 -0.042291,0.031904 -0.078815,0.0881972 -0.090132,0.14206796 -0.012915,0.061513 0.00752,0.1160288 0.070183,0.1378906 -0.00769,0.015082 -0.01539,0.0291441 -0.023317,0.0416537 -0.037049,0.0584981 -0.082422,0.0854448 -0.1702971,0.0298191 -0.1843366,-0.11668128 -0.3637684,-0.1692021 -0.5385278,-0.19269135 0.4595028,-0.1158938 0.9147458,-0.2630541 1.1707951,-0.39986473 0.2902107,-0.155065 0.4156517,-0.3640309 0.4213291,-0.5479475 0.00502,-0.1627073 -0.084042,-0.3043028 -0.2307677,-0.3737355 -0.1743694,-0.082527 -0.4339211,-0.066328 -0.7287142,0.1341332 -0.07004,0.047631 -0.1345157,0.096694 -0.1972062,0.1465078 9e-5,-0.1161863 -0.029707,-0.2302576 -0.070565,-0.3383217 -0.040011,-0.1058591 -0.09149,-0.2067084 -0.1393081,-0.2918457 -0.056188,-0.1000243 -0.08225,-0.1907714 -0.08432,-0.2818785 -0.00207,-0.091497 0.019949,-0.1840291 0.059893,-0.2871133 0.069365,-0.1789893 0.1122789,-0.3220397 0.1404255,-0.4646777 0.028124,-0.1425104 0.041489,-0.2846159 0.051748,-0.4618202 0.018847,-0.3253771 0.1308034,-0.5760041 0.2470122,-0.8361633 0.123251,-0.2759162 0.2512644,-0.562482 0.280131,-0.9605618 0.01155,-0.1592874 -0.01278,-0.2529145 -0.141213,-0.3557362 C 5.1787535,-6.0629481 4.9803474,-6.3205199 4.7730315,-6.4397511 4.631871,-6.520936 4.4865257,-6.6045283 4.3484101,-6.6949604 4.1546013,-6.8218639 4.1376218,-7.0174801 4.1131726,-7.2993661 c -0.00553,-0.063838 -0.011452,-0.1320633 -0.019979,-0.2057559 -0.011602,-0.1002868 -0.033359,-0.172757 -0.059503,-0.2088759 -0.026302,-0.036329 -0.061431,-0.040986 -0.091512,-0.00572 -0.026647,0.031222 -0.052423,0.098209 -0.072868,0.2068584 -0.00905,0.048081 -0.016784,0.094489 -0.024337,0.139788 -0.044878,0.2690765 -0.083307,0.4995066 -0.3287595,0.6821783 -0.1170637,0.087132 -0.2388673,0.170522 -0.3608809,0.2540543 -0.2162406,0.1480453 -0.4331712,0.440041 -0.6293649,0.613398 -0.1154738,0.1020192 -0.1276834,0.1824016 -0.097759,0.3295094 0.042771,0.2102708 0.1055291,0.4002622 0.1862415,0.578914 0.08072,0.1786593 0.1793568,0.345964 0.2939307,0.5108462 0.098427,0.1417155 0.1570149,0.2529594 0.1930438,0.3706157 0.036089,0.1178587 0.049813,0.2429847 0.058423,0.4121193 0.00959,0.188559 0.023617,0.4364186 0.1768369,0.5700343 0.050781,0.2026885 0.06467,0.3347518 0.055438,0.4363361 -0.00922,0.1015242 -0.041931,0.1735594 -0.083967,0.2562143 -0.034956,0.068735 -0.057366,0.1488927 -0.01668,0.2200805 -0.08678,0.032616 -0.1346432,0.1114764 -0.1623323,0.1963437 -0.044849,0.1374556 -0.080405,0.2058834 -0.1363606,0.2327026 l -0.00382,0.00174 c -0.095029,-0.055468 -0.1923014,-0.1031667 -0.2948081,-0.1367956 -0.2858759,-0.093792 -0.517851,-0.062968 -0.6652813,0.032414 -0.1254184,0.081133 -0.1962987,0.2145607 -0.1733044,0.3646609 0.022162,0.1446029 0.1313058,0.298393 0.3481614,0.4195141 0.1757194,0.0981419 0.3949374,0.15792996 0.6224876,0.18246918 0.1147688,0.0123746 0.2317126,0.0157945 0.3463314,0.0106572 0.064138,0.0217643 0.126251,0.0480435 0.1849741,0.0821524 0.2462172,0.14293044 0.5021315,0.14218796 0.7694304,0.14141549 0.078725,-2.325e-4 0.158455,-4.4999e-4 0.2391674,0.003052 -0.4639502,0.10869403 -0.9061361,0.17967176 -1.1212667,0.1690896 -0.1831516,-0.009015 -0.3496388,0.0220493 -0.4928242,0.0487559 -0.1447004,0.0269991 -0.3620135,0.0882497 -0.4535406,-0.0663879 0.061641,-0.0334189 0.1076066,-0.10203424 0.1344782,-0.23267257 0.01107,-0.0538108 0.00457,-0.095307 -0.011887,-0.12238859 -0.018277,-0.0300665 -0.049768,-0.0440911 -0.084222,-0.0359164 -0.028349,0.006712 -0.058236,0.0285441 -0.082895,0.0668829 -0.030854,0.0480585 -0.040446,0.10505665 -0.036434,0.16161984 0.00362,0.0510509 0.018404,0.10192174 0.038571,0.14539036 -0.068368,0.0246367 -0.1546676,0.0130421 -0.2543244,-3.5999e-4 -0.1298958,-0.0174669 -0.281436,-0.0376038 -0.4464382,0.00912 l -7.5e-5,-2.4e-4 c -0.00156,5.0249e-4 -0.00305,0.001042 -0.0046,0.001552 -0.051313,0.0147445 -0.171152,0.0676478 -0.2249478,0.0925471 -0.074053,0.0342589 -0.1380031,0.0638605 -0.1970787,0.0747426 -0.1101865,0.0202419 -0.28895827,-0.0352114 -0.29075071,-0.0357664 l -0.009097,0.0289191 c 0.006375,0.002002 0.13399072,0.0416462 0.24439471,0.0416462 0.021284,0 0.041939,-0.001477 0.060951,-0.00498 0.062848,-0.0115796 0.1284109,-0.0419087 0.2043235,-0.077045 0.065795,-0.030449 0.140373,-0.0649554 0.2261703,-0.0927795 l -6e-5,-2.0249e-4 c 0.1588899,-0.0446311 0.3065902,-0.0250042 0.4332461,-0.007965 0.1069166,0.0143771 0.1995912,0.0268192 0.2733213,1.35e-4 0.099342,0.17601938 0.3255271,0.11345638 0.486277,0.0834648 0.1416255,-0.0264217 0.3062902,-0.0571407 0.486037,-0.0482985 0.232335,0.0114371 0.7238468,-0.0705202 1.2235409,-0.19230136 0.1965837,0.0174819 0.3988297,0.0656979 0.6064756,0.1971387 0.1083116,0.0685553 0.1648522,0.0343714 0.2114258,-0.0391637 0.00972,-0.0153295 0.018824,-0.032219 0.027824,-0.0501584 0.037874,0.006127 0.087755,0.003472 0.1520576,-0.0115796 0.1122864,-0.0262717 0.2180855,-0.0467985 0.3166099,-0.0411587 0.092105,0.005272 0.1785093,0.0336439 0.2591017,0.10198924 l -4.8e-4,5.3249e-4 c 0.00688,0.006255 0.1547351,0.13882056 0.3167824,0.13882056 0.017932,0 0.036051,-0.001635 0.054163,-0.005227 0.050286,-0.009997 0.1042317,-0.0428236 0.1666747,-0.0808624 0.1219761,-0.0742626 0.2737862,-0.16668218 0.5034589,-0.16668218 v -0.030329 c -0.2381699,0 -0.4006222,0.0989068 -0.5192384,0.17112204 z M 2.2473222,-0.62156438 c -0.0036,-0.0506609 0.00475,-0.10133677 0.031762,-0.14340292 0.020144,-0.031319 0.043356,-0.0488684 0.06467,-0.0539158 0.021884,-0.005182 0.040274,0.00318 0.051861,0.0222518 0.012847,0.0211418 0.01758,0.0551682 0.00815,0.10100677 -0.023939,0.11637379 -0.065135,0.1784493 -0.1204987,0.20925082 -0.018794,-0.0404012 -0.032579,-0.0877172 -0.035946,-0.13519068 z M 3.3304076,-3.8655183 c 0.041069,-0.2272502 0.1266259,-0.4407384 0.2525094,-0.6335872 0.00934,0.045666 0.00885,0.099627 -0.00334,0.1665096 -0.041076,0.2255778 0.039914,0.3762255 0.1657672,0.4571704 0.08363,0.053796 0.1870366,0.076423 0.2873759,0.06953 0.1004517,-0.00689 0.1981286,-0.043416 0.2701563,-0.1078915 0.1037967,-0.092915 0.1542926,-0.2429473 0.083615,-0.4448258 -0.071323,-0.203716 -0.089082,-0.3592761 -0.07148,-0.5051764 0.017654,-0.1463053 0.07094,-0.2837684 0.1414905,-0.4504581 0.051816,-0.1224111 0.031274,-0.1802792 0.00934,-0.2420848 -0.018202,-0.051306 -0.024412,-0.050143 -0.023407,-0.1045916 0.00185,-0.0965 0.00471,-0.2450472 -0.055296,-0.3683958 -0.034304,-0.070513 -0.08897,-0.1276459 -0.15472,-0.1625273 -0.063095,-0.033471 -0.1364132,-0.046619 -0.2118308,-0.031484 -0.049581,0.00996 -0.094002,0.024734 -0.1460353,0.020219 -0.07715,-0.0067 -0.1401855,0.00439 -0.1921739,0.031597 -0.052153,0.027299 -0.092599,0.070528 -0.124466,0.1280584 -0.06758,0.1219986 -0.061618,0.1901789 -0.054508,0.3070252 0.00451,0.074128 0.0064,0.1211436 -0.00573,0.1958487 -0.012585,0.07745 -0.023527,0.1447304 0.047728,0.2303177 0.018892,0.022672 0.040506,0.043169 0.060666,0.064738 0.00659,0.087965 0.023542,0.172637 0.062495,0.2726988 0.028957,0.07439 0.039741,0.1353182 0.031079,0.1939288 -0.00868,0.058731 -0.037004,0.1160888 -0.086202,0.1832641 -0.0067,0.00915 -0.013321,0.018372 -0.019852,0.027652 C 3.5467382,-4.67232 3.4250396,-4.7464626 3.3336775,-4.8112306 3.1360363,-4.9510561 3.0897628,-5.0551903 3.01865,-5.2152352 2.991096,-5.2772582 2.959867,-5.3475309 2.9151758,-5.4310183 c -0.048741,-0.091047 -0.055438,-0.1542776 0.028912,-0.2253753 0.1038642,-0.08756 0.1928114,-0.2840009 0.2853734,-0.3772454 0.1526201,-0.1537601 0.3157774,-0.3240047 0.5716242,-0.5044339 0.1134339,-0.08 0.1713396,-0.1325658 0.2857784,-0.050983 0.1478578,0.1054091 0.3004029,0.2134057 0.4362086,0.3244246 0.1362856,0.1114165 0.2542644,0.3550837 0.38977,0.4763398 0.1038867,0.092952 0.1109215,0.2056285 0.072545,0.3343019 -0.033801,0.1134788 -0.073145,0.2237928 -0.099822,0.3396566 -0.035961,0.1561525 -0.092442,0.2146282 -0.1992161,0.3276945 -0.2164206,0.2291627 -0.08639,0.5189235 -0.00344,0.7738028 0.037409,0.1149114 0.069283,0.2554419 0.079677,0.3961449 0.010147,0.1373731 -1.65e-4,0.2747312 -0.045846,0.3880601 -0.069673,0.1728545 -0.2071959,0.2540094 -0.3862002,0.2672089 -0.1041051,0.00761 -0.2084227,0.011965 -0.3128,0.013057 -0.097129,9.9e-4 -0.1965687,-9.449e-4 -0.2919731,-0.00686 C 3.5560549,-2.9657468 3.4413385,-3.0036728 3.363311,-3.0680661 3.293998,-3.3447323 3.284901,-3.6136662 3.33041,-3.8655157 Z m 0.2758337,-0.6684011 c 0.010202,-0.01485 0.020625,-0.029546 0.031266,-0.044084 0.052138,-0.071173 0.08225,-0.1326408 0.091692,-0.1965762 0.00946,-0.064048 -0.00194,-0.1296484 -0.032826,-0.2089959 -0.031454,-0.08078 -0.048111,-0.1515326 -0.056496,-0.2226229 0.021854,0.028319 0.042044,0.061903 0.056458,0.1049217 0.016807,0.050151 0.035451,0.092247 0.063718,0.1306758 0.028319,0.038519 0.06602,0.1111015 0.1207761,0.1457654 0.035346,0.022372 0.073978,0.036966 0.1153313,0.037994 0.041451,0.00103 0.08513,-0.011557 0.1302409,-0.043559 0.050271,-0.035661 0.085805,-0.108184 0.1128639,-0.1468078 0.027022,-0.038594 0.045284,-0.08099 0.061093,-0.1327907 0.051613,-0.1643048 0.076055,-0.2540019 0.054373,-0.4288288 -0.00703,-0.056616 -0.013935,-0.081267 -0.025214,-0.1336458 -0.011362,-0.052716 -0.027127,-0.072815 -0.051808,-0.1200861 -0.097504,-0.1867366 -0.264749,-0.1575025 -0.4403934,-0.1345157 -0.2266653,0.029721 -0.2292827,0.1823716 -0.2313376,0.3635209 -2.95e-4,0.024972 -7.55e-4,0.049942 -0.00138,0.074908 -0.00178,0.07271 -0.00334,0.1365706 -0.00106,0.1974312 -0.012772,-0.013147 -0.024907,-0.025709 -0.035226,-0.038084 -0.06254,-0.075118 -0.052611,-0.1361957 -0.041181,-0.2064984 0.012465,-0.07673 0.01071,-0.09641 0.00607,-0.1725695 -0.00683,-0.1121964 -0.012555,-0.2062959 0.050766,-0.3206073 0.029092,-0.052506 0.06557,-0.091737 0.1122039,-0.1161488 0.046814,-0.024502 0.1044567,-0.034401 0.1758094,-0.028214 0.056398,0.0049 0.1011268,-0.010095 0.1544501,-0.020797 0.06821,-0.013695 0.1346732,-0.00172 0.1919713,0.028679 0.060246,0.031964 0.110374,0.08438 0.1418655,0.1491027 0.056946,0.1170638 0.054171,0.2612767 0.052371,0.3549562 -0.00107,0.058476 0.00553,0.059991 0.025042,0.1149863 0.019964,0.056241 0.038646,0.1088965 -0.00863,0.220598 -0.071555,0.1690821 -0.125636,0.3086751 -0.1437104,0.4585203 -0.018134,0.1502502 -7.5e-6,0.3099651 0.072995,0.518496 0.065983,0.1884614 0.020024,0.3274695 -0.07532,0.4128168 -0.06689,0.059886 -0.15814,0.093844 -0.252277,0.1003018 -0.094264,0.00648 -0.1911764,-0.014625 -0.2692639,-0.064858 -0.1163813,-0.074848 -0.1910789,-0.2153031 -0.1525601,-0.4268038 0.015674,-0.086052 0.013657,-0.1520652 -0.00267,-0.2065809 z m 0.028911,-0.7241019 c -0.00467,-0.070603 -0.00287,-0.1439654 -7.574e-4,-0.2299277 6.075e-4,-0.025139 0.00109,-0.050226 0.00137,-0.075373 0.00191,-0.1692095 0.00438,-0.3078426 0.2054035,-0.3342043 0.1587099,-0.020774 0.3214022,-0.051171 0.4101394,0.1187512 0.023197,0.044429 0.038136,0.062075 0.048996,0.1124964 0.010935,0.050766 0.017782,0.074923 0.024742,0.1310733 0.021037,0.1695771 -0.00314,0.2572193 -0.053203,0.4165667 -0.014917,0.048876 -0.031979,0.088647 -0.057006,0.1243761 -0.024989,0.035684 -0.058273,0.1058966 -0.1057316,0.1395705 -0.039396,0.027944 -0.07697,0.038954 -0.1122414,0.038069 -0.035384,-8.775e-4 -0.068998,-0.013725 -0.1001443,-0.033441 -0.051343,-0.032504 -0.086472,-0.1026418 -0.1125939,-0.1381681 -0.026197,-0.035609 -0.043649,-0.075155 -0.059518,-0.1225011 -0.022042,-0.06578 -0.055813,-0.1104115 -0.089457,-0.1472878 z M 3.1575381,-1.933205 c 0.025619,-0.078545 0.069545,-0.1528526 0.1515927,-0.1801142 0.023564,0.028604 0.056256,0.052026 0.094324,0.072583 0.1369007,0.073918 0.3340994,0.1309684 0.5521249,0.1477078 0.1867665,0.014332 0.3891176,-8.849e-4 0.5822739,-0.060396 0.072583,-0.022357 0.1123314,-0.065518 0.1242111,-0.1060767 0.00826,-0.028214 0.00394,-0.058933 -0.017699,-0.080082 -0.020947,-0.020482 -0.056143,-0.029542 -0.1027242,-0.016545 -0.1915589,0.053473 -0.3696257,0.07121 -0.547565,0.067625 -0.1782543,-0.00359 -0.3568986,-0.028634 -0.5489825,-0.060606 -0.046588,-0.00775 -0.087807,-0.00698 -0.1241735,0.00145 -0.039959,-0.062563 -0.017302,-0.1363382 0.013882,-0.1976487 0.043446,-0.085437 0.077278,-0.1600974 0.087005,-0.2670815 0.00896,-0.098667 -0.00291,-0.2240553 -0.047264,-0.4099669 0.081065,0.054681 0.1932163,0.087222 0.3494663,0.096897 0.095615,0.00593 0.1957663,0.00787 0.2939606,0.00686 0.111109,-0.00113 0.2190455,-0.006 0.3146675,-0.013057 0.1907189,-0.014055 0.3377067,-0.1020792 0.4117893,-0.2858909 0.047563,-0.1180012 0.058386,-0.2598892 0.047946,-0.4012522 -0.010582,-0.1433279 -0.043019,-0.2863633 -0.081072,-0.4032621 -0.0785,-0.2411773 -0.2081409,-0.5271656 -0.00322,-0.7441562 0.1106739,-0.1171913 0.1692771,-0.1795218 0.2065734,-0.3414641 0.026504,-0.1150838 0.06575,-0.2250078 0.099357,-0.3377892 0.041751,-0.139968 0.031461,-0.2641041 -0.081305,-0.3650209 -0.1368631,-0.122471 -0.2553593,-0.3666257 -0.390715,-0.4772772 -0.1358282,-0.1110415 -0.2888533,-0.219383 -0.437836,-0.3255871 -0.124781,-0.088955 -0.1965388,-0.036381 -0.3202548,0.050863 -0.2578643,0.1818617 -0.422034,0.3531187 -0.5755841,0.5078162 -0.09203,0.092712 -0.1804593,0.2886283 -0.2835135,0.375498 -0.095682,0.080668 -0.091467,0.1584025 -0.035916,0.2621692 0.044384,0.082925 0.075275,0.1524401 0.1025367,0.2137956 0.073138,0.1645973 0.1207312,0.2716939 0.3250771,0.4162668 0.092517,0.065953 0.2157006,0.139173 0.2557794,0.249892 -0.1358882,0.2017585 -0.2278653,0.4264514 -0.2711989,0.6662787 -0.043739,0.2420248 -0.037926,0.4993265 0.022229,0.7638731 C 3.2105614,-3.2357484 3.1979168,-3.4601787 3.1896371,-3.6229535 3.1809149,-3.7943381 3.1669053,-3.9214515 3.129939,-4.0421976 3.0869129,-4.1827056 3.0158826,-4.3010444 2.9328903,-4.4212055 2.8193064,-4.5847153 2.721562,-4.750475 2.6416746,-4.9272819 2.5617871,-5.1041112 2.4996966,-5.2920477 2.457413,-5.4998961 2.429694,-5.6361892 2.438679,-5.7065745 2.545715,-5.801139 c 0.1908914,-0.1686771 0.4028047,-0.4541555 0.6144554,-0.6025307 -1.125e-4,-1.125e-4 0.00364,-0.00281 0.011985,-0.00853 -0.00399,0.00274 -0.00799,0.00573 -0.011985,0.00853 7.35e-4,7.35e-4 0.1667872,-0.109204 0.3738031,-0.2632791 0.2551718,-0.1899089 0.2945156,-0.4257839 0.3404441,-0.7012201 0.00759,-0.045531 0.015367,-0.092165 0.024217,-0.1392031 0.019417,-0.1031967 0.042741,-0.1654597 0.066208,-0.1929613 0.017272,-0.020242 0.029849,-0.016605 0.044669,0.00386 0.023287,0.032166 0.043004,0.099619 0.054006,0.1947313 0.00835,0.07226 0.014302,0.140808 0.019867,0.2049459 0.025192,0.2904207 0.042689,0.4919543 0.2486696,0.6268225 0.1373281,0.08993 0.2838434,0.1741894 0.4261439,0.2560268 0.2061459,0.1185562 0.4034196,0.375483 0.5531823,0.4954942 0.1206187,0.096567 0.140943,0.1809617 0.1301134,0.3303944 -0.028499,0.392935 -0.1553951,0.6770109 -0.2775662,0.9505122 -0.1173562,0.2627316 -0.2304151,0.515826 -0.249577,0.8466779 -0.010177,0.1756594 -0.023422,0.3165124 -0.051283,0.4577329 -0.027847,0.141093 -0.070303,0.2825985 -0.1389105,0.4596453 -0.041294,0.1065641 -0.06404,0.2026586 -0.061873,0.298453 0.00218,0.096192 0.029407,0.1914689 0.088055,0.2958956 0.047286,0.084185 0.098119,0.1837366 0.1374406,0.2877508 0.043154,0.1141163 0.072043,0.2293126 0.068315,0.3519337 -0.025945,0.020911 -0.051824,0.041903 -0.077638,0.062976 -0.2051109,0.1671022 -0.4147742,0.3378867 -0.7630481,0.4829471 -0.06067,-0.011108 -0.1203461,-0.027087 -0.1784493,-0.047781 -0.234015,-0.083397 -0.436501,-0.2237553 -0.6340147,-0.3606635 -0.09473,-0.06566 -0.1883265,-0.1305333 -0.283881,-0.188154 0.057193,-0.034641 0.094257,-0.107569 0.1384756,-0.2430747 z m 0.1844041,-0.188139 c 0.029144,-0.00478 0.06179,-0.00439 0.098247,0.00167 0.1930813,0.032136 0.3728806,0.057313 0.5533023,0.060943 0.1807217,0.00364 0.361571,-0.014362 0.5560997,-0.068668 0.034994,-0.00976 0.060058,-0.00431 0.073865,0.00919 0.013612,0.013312 0.015104,0.032924 0.00998,0.050421 -0.00941,0.032121 -0.042629,0.066853 -0.1043517,0.085865 C 4.339828,-1.923612 4.1412644,-1.908725 3.9577977,-1.92281 3.7440321,-1.939219 3.5511382,-1.994913 3.41759,-2.0670154 3.387861,-2.0830654 3.361882,-2.1007864 3.34194,-2.1213434 Z m 1.6119085,0.5219983 c -0.00486,0.059001 -0.016372,0.1125415 -0.033599,0.1608399 -0.044226,0.123971 -0.126386,0.2134732 -0.2303401,0.2725038 -0.1047267,0.059473 -0.2316601,0.088242 -0.3644434,0.09035 -0.050878,8.025e-4 -0.1026117,-0.00231 -0.1542926,-0.0091 0.3255046,-0.1422329 0.5278932,-0.3071227 0.7260893,-0.4686 0.018869,-0.015367 0.037701,-0.030704 0.056586,-0.045989 z M 2.8293786,-0.87539378 C 2.6055557,-0.89952801 2.3902901,-0.95813863 2.2182231,-1.0542406 2.0103447,-1.1703444 1.9059931,-1.3160122 1.8851362,-1.4521479 c -0.021209,-0.138423 0.044451,-0.2604966 0.1599849,-0.3352317 0.140523,-0.090905 0.3633409,-0.1197337 0.6398121,-0.029024 0.090995,0.029856 0.1781268,0.071248 0.2634366,0.1194937 -0.053368,0.00748 -0.125411,-0.00454 -0.2289602,-0.023984 -0.1928338,-0.036186 -0.3434065,-0.00807 -0.4405434,0.055978 -0.1003768,0.066185 -0.1472728,0.173417 -0.1177013,0.2912982 0.025319,0.1009543 0.1067516,0.2072034 0.2528544,0.2957831 0.1513602,0.0917746 0.3201948,0.1311783 0.4880395,0.17034955 0.060658,0.0141596 0.1211961,0.0282966 0.1805942,0.0448561 -0.084598,5.0843e-4 -0.1691566,-0.003753 -0.2532744,-0.0127648 z m 0.079452,-0.0611755 C 2.7431538,-0.97523809 2.5765017,-1.0141318 2.4294464,-1.103289 2.2906858,-1.1874213 2.2136857,-1.2869956 2.1901365,-1.3808626 c -0.026467,-0.1054992 0.015329,-0.1999961 0.1050941,-0.2591768 0.091145,-0.060103 0.2340526,-0.086195 0.4186892,-0.051538 0.1277284,0.023977 0.2098958,0.036989 0.2722113,0.016522 0.1009768,0.059743 0.1997861,0.1282309 0.2998704,0.1976037 0.1991636,0.1380555 0.4033371,0.2795835 0.641027,0.3642933 0.045265,0.016116 0.091475,0.02944 0.1383706,0.039899 -0.1492002,0.058836 -0.3230747,0.11305143 -0.5310505,0.16058491 -0.1123014,0.0256642 -0.2334151,0.0416837 -0.3574311,0.0475485 -0.087147,-0.0292122 -0.1774743,-0.050294 -0.2680869,-0.0714433 z m 1.5560278,0.30449777 c -0.1146413,-0.009847 -0.2272502,-0.009532 -0.3379017,-0.00921 -0.2631666,7.6497e-4 -0.515136,0.001492 -0.7544684,-0.13744061 -0.040709,-0.0236468 -0.082812,-0.0435811 -0.1259209,-0.0608756 0.1019217,-0.00792 0.201166,-0.0226793 0.2944406,-0.0440011 0.2297401,-0.0524983 0.4182091,-0.11308139 0.5779465,-0.17900428 0.069043,0.01206 0.1387306,0.017812 0.2069859,0.016725 0.1376206,-0.00218 0.2694814,-0.032174 0.3786929,-0.094197 0.1099915,-0.062458 0.1969437,-0.15721 0.2437797,-0.2885083 0.020722,-0.058086 0.033524,-0.1233411 0.036936,-0.1961262 0.068525,-0.054898 0.1385806,-0.1088741 0.2148307,-0.1607349 0.2847734,-0.1936438 0.5334354,-0.2102858 0.6992701,-0.1318008 0.1362407,0.064475 0.2183706,0.1948438 0.2137132,0.3459564 -0.00538,0.1742045 -0.126101,0.3731581 -0.405557,0.5224784 -0.2624992,0.14025297 -0.7378865,0.29189813 -1.2112414,0.40900689 z m 0.8419832,0.0816049 -0.010552,0.0220568 c -0.050473,-0.016132 -0.06452,-0.0561657 -0.054291,-0.10484665 0.00989,-0.047121 0.041871,-0.0963719 0.078898,-0.12434603 0.061926,-0.046566 0.1184212,-0.0100197 0.067048,0.0610406 -0.033697,0.046596 -0.058341,0.0983144 -0.081102,0.14609534 z"
             fill="none"
             fill-rule="nonzero"
             stroke-dasharray="none"
             stroke-miterlimit="10"
             stroke-linejoin="miter"
             stroke-linecap="butt"
             stroke-width="0.0238267"
             stroke="#004a80"
             id="path3" /></g></g></g></g></svg>
