<?xml version="1.0" encoding="UTF-8" standalone="no"?>
<!-- Created with Inkscape (http://www.inkscape.org/) -->

<svg
   width="118mm"
   height="103mm"
   viewBox="0 0 118 103"
   version="1.1"
   id="svg1"
   xml:space="preserve"
   inkscape:version="1.3 (0e150ed6c4, 2023-07-21)"
   sodipodi:docname="launding.svg"
   xmlns:inkscape="http://www.inkscape.org/namespaces/inkscape"
   xmlns:sodipodi="http://sodipodi.sourceforge.net/DTD/sodipodi-0.dtd"
   xmlns="http://www.w3.org/2000/svg"
   xmlns:svg="http://www.w3.org/2000/svg"><sodipodi:namedview
     id="namedview1"
     pagecolor="#ffffff"
     bordercolor="#000000"
     borderopacity="0.25"
     inkscape:showpageshadow="2"
     inkscape:pageopacity="0.0"
     inkscape:pagecheckerboard="0"
     inkscape:deskcolor="#d1d1d1"
     inkscape:document-units="mm"
     inkscape:zoom="0.69219276"
     inkscape:cx="397.28818"
     inkscape:cy="561.25984"
     inkscape:window-width="1920"
     inkscape:window-height="991"
     inkscape:window-x="-9"
     inkscape:window-y="-9"
     inkscape:window-maximized="1"
     inkscape:current-layer="g1" /><defs
     id="defs1" /><g
     inkscape:label="Calque 1"
     inkscape:groupmode="layer"
     id="layer1"><g
       id="g1"
       transform="matrix(0.26458333,0,0,0.26458333,48.908223,99.172701)"><g
         id="OBJECT"
         transform="translate(-348.16892,-41.895845)">&#10;	<g
   id="g12"
   transform="translate(143.02375,-397.28818)">&#10;		<path
   style="fill:#a8b2f4"
   d="m 423.951,334.143 c -10.56,-4.769 -12.167,-16.248 -16.529,-22.216 -4.362,-5.969 -14.922,-9.642 -14.922,-9.642 0,0 10.101,-7.805 26.171,-5.969 7.555,0.863 13.231,4.264 17.866,7.958 -2.384,-6.915 0.036,-10.9 -4.092,-17.477 -4.821,-7.682 -14.233,-11.831 -19.514,-24.588 -5.28,-12.757 0,-24.204 0,-24.204 0,0 1.607,4.591 8.035,9.183 5.746,4.104 21.942,4.734 31.547,17.116 C 447.549,194.429 398.97,156.243 365.358,136.324 336.486,119.215 317.844,83.507 239.84,88.671 c -78.004,5.175 -95.37,55.217 -114.697,93.099 -10.699,20.971 -34.889,25.611 -55.291,40.04 15.101,-3.951 24.677,3.336 36.053,5.635 13.634,2.755 15.776,-6.858 28.02,-6.796 12.244,0.062 16.835,4.347 16.835,4.347 0,0 -12.244,-1.837 -16.223,8.571 -3.979,10.407 -8.877,14.316 -21.121,12.668 -12.244,-1.648 -15.788,-0.759 -22.281,5.072 -6.492,5.83 -21.491,1.545 -30.062,3.687 -5.078,1.269 -11.981,10.274 -16.765,17.403 3.865,-3.128 9.157,-6.584 16.286,-9.765 19.896,-8.877 45.31,7.361 45.31,7.361 0,0 -20.037,4.591 -31.669,12.55 -11.632,7.959 -19.896,0.306 -27.855,3.061 -3.986,1.38 -7.204,2.778 -9.424,3.83 -0.002,0.031 -0.005,0.061 -0.007,0.092 -1.596,24.748 7.757,46.721 23.644,65.555 38.9,46.11 116.979,73.429 169.539,76.697 54.97,3.407 151.444,-17.013 197.254,-77.865 4.055,-5.383 7.706,-11.088 10.902,-17.116 -4.579,-0.025 -9.85,-0.628 -14.337,-2.654 z"
   id="path1" />&#10;		&#10;			<circle
   transform="matrix(0.9212,-0.3892,0.3892,0.9212,-58.639,91.4941)"
   style="fill:#7c84d5"
   cx="196.509"
   cy="190.48199"
   id="ellipse1"
   r="28.861" />&#10;		<circle
   style="fill:#7c84d5"
   cx="395.379"
   cy="161.621"
   r="10.478"
   id="circle1" />&#10;		<path
   style="fill:#7c84d5"
   d="M 427.389,353.912 C 381.579,414.764 285.105,435.184 230.135,431.777 177.575,428.509 99.496,401.19 60.596,355.08 75.413,338.656 113.295,305.391 183.2,296.039 c 93.978,-12.577 159.479,62.041 230.498,58.099 4.777,-0.269 9.341,-0.333 13.691,-0.226 z"
   id="path2" />&#10;		<path
   style="fill:none;stroke:#7c84d5;stroke-miterlimit:10"
   d="m 122.753,159.95 c 8.724,-26.171 -11.938,-14.081 -19.743,2.601 -7.805,16.683 -22.498,18.516 -22.498,27.93 0,9.414 33.517,-4.36 42.241,-30.531 z"
   id="path3" />&#10;		<path
   style="fill:none;stroke:#7c84d5;stroke-miterlimit:10"
   d="m 361.967,127.112 c 0,0 -24.335,-20.652 -34.206,-27.31 -9.872,-6.658 -5.51,-15.611 17.103,-5.28 22.613,10.331 32.255,30.279 29.27,34.424 -2.984,4.144 -12.167,-1.834 -12.167,-1.834 z"
   id="path4" />&#10;		<path
   style="fill:#5661af"
   d="m 136.143,188.914 c 0,0.866 -0.702,1.568 -1.568,1.568 -0.866,0 -1.568,-0.702 -1.568,-1.568 0,-0.866 0.702,-1.568 1.568,-1.568 0.866,0 1.568,0.702 1.568,1.568 z"
   id="path5" />&#10;		<path
   style="fill:#5661af"
   d="m 149.305,191.877 c 0,0.866 -0.702,1.568 -1.568,1.568 -0.866,0 -1.568,-0.702 -1.568,-1.568 0,-0.866 0.702,-1.568 1.568,-1.568 0.866,0 1.568,0.702 1.568,1.568 z"
   id="path6" />&#10;		<path
   style="fill:#5661af"
   d="m 193.293,145.036 c 0,0.866 -0.702,1.568 -1.568,1.568 -0.866,0 -1.568,-0.702 -1.568,-1.568 0,-0.866 0.702,-1.568 1.568,-1.568 0.866,0 1.568,0.702 1.568,1.568 z"
   id="path7" />&#10;		<path
   style="fill:#5661af"
   d="m 398.515,284.065 c 0,0.866 -0.702,1.568 -1.568,1.568 -0.866,0 -1.568,-0.702 -1.568,-1.568 0,-0.866 0.702,-1.568 1.568,-1.568 0.866,0 1.568,0.702 1.568,1.568 z"
   id="path8" />&#10;		<path
   style="fill:#5661af"
   d="m 403.855,279.818 c 0,0.866 -0.702,1.568 -1.568,1.568 -0.866,0 -1.568,-0.702 -1.568,-1.568 0,-0.866 0.702,-1.568 1.568,-1.568 0.866,0 1.568,0.702 1.568,1.568 z"
   id="path9" />&#10;		<circle
   style="fill:#5661af"
   cx="143.644"
   cy="183.826"
   r="2.5250001"
   id="circle9" />&#10;		<circle
   style="fill:#5661af"
   cx="410.02399"
   cy="200.937"
   r="2.5250001"
   id="circle10" />&#10;		<path
   style="fill:none;stroke:#ffffff;stroke-miterlimit:10"
   d="m 141.119,276.872 c 0,1.807 -1.465,3.272 -3.272,3.272 -1.807,0 -3.272,-1.465 -3.272,-3.272 0,-1.807 1.465,-3.272 3.272,-3.272 1.807,10e-4 3.272,1.465 3.272,3.272 z"
   id="path10" />&#10;		<path
   style="fill:none;stroke:#ffffff;stroke-miterlimit:10"
   d="m 326.054,137.34 c 0,1.807 -1.465,3.272 -3.272,3.272 -1.807,0 -3.272,-1.465 -3.272,-3.272 0,-1.807 1.465,-3.272 3.272,-3.272 1.807,0 3.272,1.465 3.272,3.272 z"
   id="path11" />&#10;		&#10;			<circle
   transform="matrix(0.9303,-0.3667,0.3667,0.9303,-35.2214,68.3346)"
   style="fill:none;stroke:#ffffff;stroke-miterlimit:10"
   cx="162.24699"
   cy="126.87"
   id="ellipse11"
   r="10.432" />&#10;		&#10;			<circle
   transform="matrix(0.9259,-0.3777,0.3777,0.9259,-48.9291,184.1235)"
   style="fill:none;stroke:#ffffff;stroke-miterlimit:10"
   cx="444.91"
   cy="216.79401"
   id="ellipse12"
   r="21.375999" />&#10;		<circle
   style="fill:none;stroke:#ffffff;stroke-miterlimit:10"
   cx="44.09"
   cy="320.80301"
   r="21.375999"
   id="circle12" />&#10;	</g>&#10;	<g
   id="g56"
   transform="translate(144.46843,-398.73287)">&#10;		<path
   style="fill:#3d2624"
   d="m 206.147,103.275 c 0,0 -4.503,2.337 -4.716,12.198 -0.213,9.861 9.234,14.43 15.191,14.324 l -0.522,-1.538 c 0,0 -10.146,-1.119 -12.779,-9.727 -2.634,-8.608 3.105,-14.453 3.105,-14.453 z"
   id="path12" />&#10;		<path
   style="fill:#3d2624"
   d="m 370.179,275.351 c 0,0 -2.061,15.586 -29.4,21.537 -27.339,5.951 -55.536,-9.635 -55.536,-9.635 l 4.601,-0.456 c 0,0 15.944,9.241 35.073,8.108 19.129,-1.134 29.962,-12.752 29.962,-12.752 z"
   id="path13" />&#10;		<path
   style="fill:#3d2624"
   d="m 376.919,199.97 c 1.7,-19.27 -24.938,-39.107 -56.677,-44.215 -31.739,-5.108 -29.448,-38.959 -29.448,-38.959 l -63.41,36.486 c 0,0 -2.927,30.252 -24.062,47.255 -21.135,17.003 -24.773,57.244 -14.855,73.114 9.918,15.87 27.488,17.003 54.835,15.303 27.347,-1.7 40.023,-0.281 70.422,2.267 30.399,2.548 52.074,9.456 70.534,-24.23 18.46,-33.685 -7.339,-67.021 -7.339,-67.021 z m -2.551,-1.559 c 0,0 -3.259,-9.493 -15.728,-19.27 -12.469,-9.777 -22.388,-15.161 -22.388,-15.161 38.824,12.186 39.249,34.432 39.249,34.432 h -1.133 z"
   id="path14" />&#10;		<path
   style="fill:#c56e5d"
   d="m 205.527,182.798 c 0,0 -8.984,8.104 -15.36,25.107 -6.376,17.003 -19.837,69.713 -19.837,69.713 l 21.76,13.568 21.031,-57.493 z"
   id="path15" />&#10;		<path
   style="fill:#f7dbc6"
   d="m 292.229,264.541 c -3.31,9.792 -2.496,20.505 2.282,29.676 l 1.168,5.046 v 0.011 l 3.203,13.788 c -21.92,19.027 -52.367,25.444 -71.094,21.309 -18.738,-4.135 -23.505,-19.466 -23.505,-19.466 l 2.893,-20.259 -4.96,-45.071 c 0,0 -3.878,-5.924 -5.528,-19.563 -1.661,-13.649 8.838,-47.214 8.838,-47.214 l 34.111,-13.638 24.876,-2.121 41.493,15.759 5.367,13.445 c -0.193,7.435 -5.667,26.558 -11.388,44.632 -2.71,8.582 -5.474,16.928 -7.756,23.666 z"
   id="path16" />&#10;		<path
   style="fill:#c56e5d"
   d="m 264.749,169.256 c -3.898,7.1 -17.813,16.013 -23.432,14.064 -5.619,-1.949 -1.065,-11.973 -1.065,-11.973 0.052,-1.423 0.104,-2.735 0.143,-3.943 0.26,-8.016 0.208,-11.401 0.208,-11.401 l 24.146,-15.981 c -0.565,2.917 -0.845,6.249 -0.942,9.601 -0.292,9.752 0.942,19.633 0.942,19.633 z"
   id="path17" />&#10;		<path
   style="fill:#af5448"
   d="m 264.749,140.023 c -0.565,2.917 -0.845,6.249 -0.942,9.601 -2.767,4.151 -7.38,10.374 -12.174,13.785 -4.95,3.527 -9.004,4.06 -11.238,3.995 0.26,-8.016 0.208,-11.401 0.208,-11.401 z"
   id="path18" />&#10;		<path
   style="fill:#c56e5d"
   d="m 214.36,131.533 c 0,0 0.835,19.767 14.756,28.676 13.921,8.909 33.409,-9.744 36.75,-20.045 3.341,-10.301 2.227,-32.574 2.227,-32.574 0,0 -18.375,-12.25 -32.295,-12.25 -13.92,0 -21.438,6.96 -21.438,6.96 0,0 0,18.932 0,29.233 z"
   id="path19" />&#10;		<path
   style="fill:#3d2624"
   d="m 230.225,95.729 c 0,0 -0.414,7.267 12.95,15.758 13.364,8.491 20.61,10.231 20.61,10.231 l 2.83,15.611 c 0,0 -1.944,4.899 -2.488,6.68 -0.594,1.944 -0.362,8.125 -0.362,8.125 0,0 11.288,-1.673 15.185,-12.112 0,0 11.554,-8.629 11.971,-24.22 0.418,-15.591 -7.656,-20.463 -7.656,-20.463 0,0 -2.078,-18.653 -22.685,-21.855 -20.607,-3.202 -37.033,8.352 -37.033,8.352 0,0 -10.023,-1.392 -15.452,5.707 -5.429,7.099 -1.949,15.73 -1.949,15.73 0,0 -4.733,4.594 -1.949,12.111 2.784,7.517 10.162,8.491 10.162,8.491 0,0 0.696,-12.807 4.455,-19.21 3.759,-6.402 11.411,-8.936 11.411,-8.936 z"
   id="path20" />&#10;		<path
   style="fill:#c56e5d"
   d="m 264.752,124.016 c 0,0 2.645,-6.543 8.074,-7.239 5.429,-0.696 5.847,8.909 2.088,15.313 -3.759,6.403 -9.048,5.151 -9.048,5.151 z"
   id="path21" />&#10;		<path
   style="fill:#3d2624"
   d="m 262.107,116.742 c 0,0 3.619,10.894 1.531,19.524 0,0 0.587,-0.579 1.354,-1.697 1.747,-2.545 2.474,-12.223 3.257,-15.541 z"
   id="path22" />&#10;		<path
   style="fill:#3d2624"
   d="m 223.269,82.812 c 0,0 4.547,-6.589 13.178,-9.28 8.631,-2.691 15.869,0 15.869,0 l 1.392,-0.093 c 0,0 -8.074,-3.877 -17.169,-1.103 -9.095,2.774 -15.405,9.92 -15.405,9.92 z"
   id="path23" />&#10;		<path
   style="fill:#3d2624"
   d="m 283.266,95.34 c 0,0 4.811,0.928 7.672,6.125 2.861,5.197 -0.092,10.473 -0.092,10.473 l -0.48,-0.636 c 0,0 2.302,-4.478 -0.557,-9.373 -2.859,-4.895 -6.543,-4.64 -6.543,-4.64 z"
   id="path24" />&#10;		<path
   style="fill:#3d2624"
   d="m 216.1,120.566 c 0,0 0.577,-1.318 4.695,-1.235 4.118,0.082 6.589,2.388 6.589,2.388 0,0 -1.894,-3.541 -5.642,-4.036 -3.748,-0.494 -5.56,2.307 -5.642,2.883 z"
   id="path25" />&#10;		<path
   style="fill:#3d2624"
   d="m 230.225,95.729 c 0,0 -0.646,7.128 3.53,12.882 4.176,5.754 16.519,5.754 16.519,5.754 l 0.495,1.107 c 0,0 -12.188,0.099 -17.107,-4.263 -4.919,-4.362 -5.475,-11.657 -4.547,-15.48 z"
   id="path26" />&#10;		<path
   style="fill:#3d2624"
   d="m 238.51,121.022 c 0,0 0.666,-1.522 5.422,-1.427 4.756,0.095 7.609,2.758 7.609,2.758 0,0 -2.188,-4.09 -6.515,-4.661 -4.328,-0.57 -6.421,2.664 -6.516,3.33 z"
   id="path27" />&#10;		<path
   style="fill:#913d37"
   d="m 227.383,139.746 c 0,0 0.626,0.626 2.993,1.322 2.367,0.696 4.037,0 4.037,0 0,0 -0.714,-1.322 -2.55,-1.601 -1.835,-0.278 -4.48,0.279 -4.48,0.279 z"
   id="path28" />&#10;		<path
   style="fill:#af5448"
   d="m 227.383,121.719 c 0,0 1.315,1.392 1.802,5.011 0.487,3.619 0,6.473 0,6.473 0,0 -1.655,-9.465 -1.802,-11.484 z"
   id="path29" />&#10;		<path
   style="fill:#af5448"
   d="m 216.622,125.756 c 0,0 2.019,0.87 4.559,1.148 2.54,0.278 5.673,-0.522 5.673,-0.522 0,0 -1.166,-3.133 -3.863,-3.863 -4.246,-1.148 -6.369,3.237 -6.369,3.237 z"
   id="path30" />&#10;		<path
   style="fill:#af5448"
   d="m 238.51,126.269 c 0,0 0.419,-3.212 4.526,-3.915 4.106,-0.704 8.979,3.612 8.979,3.612 0,0 -8.076,3.852 -13.505,0.303 z"
   id="path31" />&#10;		<path
   style="fill:#3d2624"
   d="m 221.854,126.87 c -2.738,-0.046 -5.232,-1.114 -5.232,-1.114 l -0.522,0.348 c -0.34,0.227 -1.102,0.325 -1.102,0.325 0.736,0.321 1.499,0.302 1.965,0.245 0.948,0.542 2.626,1.281 4.775,1.31 3.411,0.046 5.116,-1.137 5.116,-1.137 v -0.464 c 0,-10e-4 -2.262,0.533 -5,0.487 z"
   id="path32" />&#10;		<path
   style="fill:#3d2624"
   d="m 252.015,125.965 c 0,0 -3.305,1.005 -6.727,1.099 -3.423,0.093 -6.587,-0.913 -6.587,-0.913 l -0.637,0.397 c -0.415,0.258 -1.363,0.402 -1.363,0.402 0.934,0.303 1.886,0.244 2.466,0.158 1.209,0.527 3.338,1.225 6.024,1.145 4.264,-0.127 5.579,-1.14 6.505,-1.748 0.131,-0.087 0.319,-0.54 0.319,-0.54 z"
   id="path33" />&#10;		<path
   style="fill:#913d37"
   d="m 227.383,146.057 c 0,0 0.704,0.325 3.515,0.882 2.811,0.557 9.497,-0.882 9.497,-0.882 0,0 -4.934,-0.835 -6.506,-0.742 -1.572,0.093 -2.639,0.872 -2.639,0.872 0,0 -1.438,-1.151 -2.32,-1.151 -0.882,0 -2.506,0.51 -2.506,0.51 z"
   id="path34" />&#10;		<path
   style="fill:#af5448"
   d="m 228.393,149.033 c 0,0 1.914,1.299 4.698,1.392 2.784,0.093 5.8,-1.067 5.8,-1.067 0,0 -1.676,2.406 -5.249,2.777 -3.573,0.371 -5.249,-3.102 -5.249,-3.102 z"
   id="path35" />&#10;		<path
   style="fill:#743f3d"
   d="m 194.215,327.177 11.983,-25.65 c 0,0 7.967,8.397 32.312,9.248 24.345,0.85 57.169,-11.499 57.169,-11.499 0,0 8.408,21.701 8.408,29.777 0,8.077 -48.034,39.958 -48.034,39.958 l -28.481,-2.125 z"
   id="path36" />&#10;		<path
   style="fill:#c56e5d"
   d="m 192.85,369.011 c 0,0 -7.869,3.063 -10.565,4.319 0,0 -11.756,1.204 -16.475,2.595 -4.719,1.391 -5.911,7.718 -7.068,14.55 -1.158,6.832 -9.96,15.999 -12.691,20.755 -2.731,4.756 -1.427,10.407 -1.05,11.578 0.377,1.17 -1.18,5.16 0.779,7.63 1.958,2.47 3.099,1.198 4.194,0.587 1.095,-0.611 1.428,-2.785 1.428,-2.785 0,0 3.039,-0.592 4.176,-1.475 1.137,-0.883 -0.03,-0.895 2.779,-1.8 2.809,-0.905 4.255,-1.629 5.822,-2.78 1.567,-1.151 10.432,-16.539 16.082,-21.459 5.649,-4.921 15.82,-6.647 15.82,-6.647 z"
   id="path37" />&#10;		<path
   style="fill:#743f3d"
   d="m 346.877,396.639 c -19.192,4.84 -60.87,8.242 -98.223,10.454 -38.484,2.281 -72.376,3.293 -72.376,3.293 l -5.703,-18.101 -5.058,-16.048 111.861,-22.178 c 0,0 -3.045,-23.16 21.325,-35.637 0,0 72.544,0.575 90.12,20.978 17.565,20.402 -1.419,47.043 -41.946,57.239 z"
   id="path38" />&#10;		<path
   style="fill:#c56e5d"
   d="m 237.675,390.276 c 0,0 7.869,3.063 10.564,4.319 0,0 11.756,1.204 16.475,2.595 4.719,1.391 5.911,7.718 7.068,14.55 1.158,6.832 9.96,15.999 12.691,20.755 2.731,4.756 1.427,10.407 1.05,11.578 -0.377,1.17 1.18,5.16 -0.779,7.63 -1.958,2.47 -3.099,1.198 -4.194,0.587 -1.095,-0.611 -1.428,-2.785 -1.428,-2.785 0,0 -3.039,-0.592 -4.176,-1.475 -1.137,-0.883 0.03,-0.895 -2.779,-1.8 -2.809,-0.905 -4.255,-1.629 -5.822,-2.78 -1.567,-1.151 -10.432,-16.539 -16.082,-21.459 -5.649,-4.921 -15.82,-6.647 -15.82,-6.647 z"
   id="path39" />&#10;		<path
   style="fill:#743f3d"
   d="m 200.368,322.677 c 0,0 -95.643,0 -110.946,17.003 -15.303,17.003 -6.801,38.682 5.526,45.909 12.327,7.226 141.552,36.132 141.552,36.132 l 6.801,-39.533 -19.065,-5.951 10.208,-13.668 z"
   id="path40" />&#10;		<path
   style="fill:#5e3030"
   d="m 200.085,326.361 c 0,0 19.959,24.71 30.808,32.05 0,0 -22.306,-2.295 -30.808,-32.05 z"
   id="path41" />&#10;		<path
   style="fill:#5e3030"
   d="m 123.004,347.757 c 0,0 16.578,2.125 42.508,7.651 25.93,5.526 58.725,20.829 58.725,20.829 0,0 -33.643,-22.954 -59.999,-28.48 -26.356,-5.527 -41.234,0 -41.234,0 z"
   id="path42" />&#10;		<path
   style="fill:#5e3030"
   d="m 215.489,370.659 c 0,0 77.122,-23.017 109.428,-28.273 0,0 -68.31,20.532 -100.68,33.851 z"
   id="path43" />&#10;		<path
   style="fill:#5e3030"
   d="m 289.844,324.33 c 0,0 -37.388,18.455 -49.971,37.165 0,0 39.411,-20.208 49.971,-37.165 z"
   id="path44" />&#10;		<path
   style="fill:#c56e5d"
   d="m 192.09,291.186 c 0,0 -6.35,-15.449 -21.241,-15.589 l -59.128,40.115 c -1.14,-0.591 -3.139,-1.413 -6.226,-1.987 -5.326,-0.991 -15.853,-0.867 -18.578,-1.362 -1.314,-0.239 -1.388,0.417 -0.826,1.284 -0.868,-0.36 -2.251,0.609 -3.318,2.184 -1.678,2.477 -5.889,7.093 -5.889,9.677 0,2.584 4.583,5.185 7.307,5.309 0,0 -9.289,2.353 -11.023,5.697 -1.734,3.344 2.849,2.849 4.335,2.105 1.486,-0.743 11.023,-3.344 11.023,-3.344 0,0 -9.413,5.202 -9.661,8.794 -0.248,3.592 2.972,1.486 5.945,0 2.973,-1.486 8.298,-4.211 8.298,-4.211 0,0 -7.679,5.573 -6.317,8.05 1.362,2.477 7.679,-3.179 12.757,-5.491 5.078,-2.312 8.916,-2.652 13.201,-4.317 5.996,-2.329 9.159,-7.346 9.16,-7.347 10.569,-3.932 55.844,-21.536 70.181,-39.567 z m -99.599,33.685 c -4.211,1.486 -9.042,0 -9.661,-0.743 -0.619,-0.743 4.087,-5.078 4.087,-8.422 0,-0.523 -0.066,-0.928 -0.174,-1.25 0.692,0.723 1.664,1.452 2.641,1.869 2.611,1.115 8.308,1.727 9.795,2.597 1.486,0.871 -2.477,4.463 -6.688,5.949 z"
   id="path45" />&#10;		<path
   style="fill:#3d2624"
   d="m 386.837,240.353 c 0,0 5.384,16.442 1.7,28.696 -3.684,12.253 -17.783,15.017 -17.783,15.017 l 2.267,-2.834 c 0,0 13.886,-2.338 14.665,-21.396 0.694,-16.931 -0.849,-19.483 -0.849,-19.483 z"
   id="path46" />&#10;		<path
   style="fill:#af5448"
   d="m 99.974,318.727 c 0,0 4.675,2.657 9.882,2.657 5.207,0 -1.062,2.338 -4.941,1.169 -3.879,-1.169 -4.941,-3.826 -4.941,-3.826 z"
   id="path47" />&#10;		<path
   style="fill:#af5448"
   d="m 116.379,327.975 c 0,0 -3.188,0.106 -7.651,2.444 -4.463,2.338 -6.801,8.289 -7.97,7.333 -1.169,-0.956 2.019,-10.096 15.621,-9.777 z"
   id="path48" />&#10;		<path
   style="fill:#af5448"
   d="m 85.585,330.656 c 0,0 9.769,7.9 10.938,8.006 1.169,0.106 -4.031,-7.581 -10.938,-8.006 z"
   id="path49" />&#10;		<path
   style="fill:#efc9b6"
   d="m 205.742,245.888 c 0,0 4.821,-2.525 19.514,-2.525 14.693,0 39.148,5.739 39.148,5.739 0,0 -45.118,0.23 -58.662,-3.214 z"
   id="path50" />&#10;		<path
   style="fill:#efc9b6"
   d="m 294.523,294.487 1.168,5.046 v 0.011 l -20.827,6.428 c 0,0 10.595,-25.605 10.392,-45.2 -0.204,-19.595 6.192,-43.978 6.192,-43.978 l 8.549,24.351 c -2.71,8.581 -5.475,16.927 -7.757,23.666 -3.309,9.792 -2.495,20.505 2.283,29.676 z"
   id="path51" />&#10;		<path
   style="fill:#c56e5d"
   d="m 402.118,355.317 c -1.082,-3.608 -9.771,-7.649 -9.771,-7.649 2.7,0.385 7.687,-1.318 8.167,-3.857 0.481,-2.539 -2.798,-7.858 -3.986,-10.604 -0.755,-1.746 -1.934,-2.955 -2.854,-2.763 0.713,-0.746 0.763,-1.405 -0.572,-1.415 -2.769,-0.02 -13.09,-2.1 -18.507,-2.118 -2.184,-0.007 -3.868,0.203 -5.11,0.455 l -39.61,-55.699 c -2.19,-13.613 -5.212,-48.071 -8.785,-63.337 -4.676,-19.979 -15.088,-25.533 -15.088,-25.533 0,0 -12.912,7.679 -15.065,22.557 -2.153,14.878 16.809,81.443 16.809,81.443 6.734,18.937 42.195,49.2 47.132,54.854 v 0 c 0,0 2.595,4.456 8.053,7.86 3.901,2.433 7.609,3.482 12.168,6.698 4.559,3.216 9.713,9.949 11.513,7.768 1.8,-2.18 -4.708,-9.085 -4.708,-9.085 0,0 4.726,3.668 7.37,5.681 2.644,2.013 5.416,4.681 5.841,1.106 0.425,-3.575 -7.856,-10.437 -7.856,-10.437 0,0 8.886,4.33 10.208,5.336 1.322,1.008 5.732,2.347 4.651,-1.261 z M 385.3,340.283 c -3.861,-2.244 -7.087,-6.51 -5.465,-7.089 1.622,-0.579 7.334,-0.12 10.107,-0.73 1.037,-0.228 2.128,-0.763 2.943,-1.345 -0.166,0.296 -0.306,0.682 -0.404,1.195 -0.622,3.286 3.196,8.421 2.449,9.036 -0.746,0.615 -5.769,1.177 -9.63,-1.067 z"
   id="path52" />&#10;		<path
   style="fill:#af5448"
   d="m 378.583,333.729 c 0,0 -4.675,2.657 -9.882,2.657 -5.207,0 1.062,2.338 4.941,1.169 3.879,-1.169 4.941,-3.826 4.941,-3.826 z"
   id="path53" />&#10;		<path
   style="fill:#af5448"
   d="m 358.798,340.722 c 0,0 3.188,0.106 7.652,2.444 4.463,2.338 6.801,8.289 7.97,7.333 1.168,-0.957 -2.02,-10.096 -15.622,-9.777 z"
   id="path54" />&#10;		<path
   style="fill:#af5448"
   d="m 388.396,346.127 c 0,0 -9.769,7.899 -10.938,8.006 -1.169,0.106 4.03,-7.581 10.938,-8.006 z"
   id="path55" />&#10;		<path
   style="fill:#efc9b6"
   d="m 236.161,175.331 c 0,0 -4.642,8.839 2.73,11.249 7.372,2.411 19.998,-5.969 26.426,-12.167 0,0 -8.494,13.66 -22.269,15.84 -13.774,2.181 -10.579,-11.915 -6.887,-14.922 z"
   id="path56" />&#10;	</g>&#10;</g></g></g></svg>
