<?xml version="1.0" encoding="UTF-8" standalone="no"?>
<svg
   version="1.1"
   viewBox="0 0 9.59298575941095 10.636731834218402"
   id="svg7"
   sodipodi:docname="logo1.svg"
   inkscape:version="1.3 (0e150ed6c4, 2023-07-21)"
   xmlns:inkscape="http://www.inkscape.org/namespaces/inkscape"
   xmlns:sodipodi="http://sodipodi.sourceforge.net/DTD/sodipodi-0.dtd"
   xmlns="http://www.w3.org/2000/svg"
   xmlns:svg="http://www.w3.org/2000/svg">
  <sodipodi:namedview
     id="namedview7"
     pagecolor="#ffffff"
     bordercolor="#000000"
     borderopacity="0.25"
     inkscape:showpageshadow="2"
     inkscape:pageopacity="0.0"
     inkscape:pagecheckerboard="0"
     inkscape:deskcolor="#d1d1d1"
     inkscape:zoom="73.048751"
     inkscape:cx="4.7913208"
     inkscape:cy="5.0719553"
     inkscape:window-width="1920"
     inkscape:window-height="991"
     inkscape:window-x="2391"
     inkscape:window-y="-9"
     inkscape:window-maximized="1"
     inkscape:current-layer="g6" />
  <g
     transform="matrix(1,0,0,1,0.8415577445441293,8.597318094966303)"
     id="g6">
    <rect
       width="10.636731834218402"
       height="10.636731834218402"
       x="-1.363430781947855"
       y="-8.597318094966303"
       fill="#ffffff"
       id="rect1" />
    <g
       id="g1">
      <path
         d=" M 1.0732789712583408 1.1978559947079694 L 1.0719099929786744 0.37783800518788513 L 0.670799357036463 1.0705410146990082 L 0.6365749000448067 1.0705410146990082 L 0.23546426410259516 0.38057596174721764 L 0.23546426410259516 1.1978559947079694 L 0.16701535011928262 1.1978559947079694 L 0.16701535011928262 0.23957119894159373 L 0.2258814161449314 0.23957119894159373 L 0.6543716176804679 0.9801884482410356 L 1.0828618192160044 0.23957119894159373 L 1.140358906961987 0.23957119894159373 L 1.1417278852416533 1.1978559947079694 L 1.0732789712583408 1.1978559947079694 M 2.1506561875521473 1.1348829938433218 L 2.1506561875521473 1.1978559947079694 L 1.489439678473348 1.1978559947079694 L 1.489439678473348 0.23957119894159373 L 2.130121513357153 0.23957119894159373 L 2.130121513357153 0.30254419980624137 L 1.5592575707363268 0.30254419980624137 L 1.5592575707363268 0.6803822049941266 L 2.0698864690518386 0.6803822049941266 L 2.0698864690518386 0.7419862275791078 L 1.5592575707363268 0.7419862275791078 L 1.5592575707363268 1.1348829938433218 L 2.1506561875521473 1.1348829938433218 M 1.9234057931275494 -2.220446049250313e-16 L 2.0219722292635196 -2.220446049250313e-16 L 1.807042639355918 0.16153943700061757 L 1.7331178122539406 0.16153943700061757 L 1.9234057931275494 -2.220446049250313e-16 M 2.4189846201702654 0.23957119894159373 L 2.798191603637817 0.23957119894159373 Q 2.9474102361214385 0.23957119894159373 3.0630889007532365 0.30117522152657505 Q 3.1787675653850345 0.3627792441115564 3.2431095445293483 0.47161301734502326 Q 3.307451523673662 0.5804467905784902 3.307451523673662 0.7187135968247815 Q 3.307451523673662 0.8569804030710729 3.2431095445293483 0.9658141763045399 Q 3.1787675653850345 1.0746479495380068 3.0630889007532365 1.1362519721229882 Q 2.9474102361214385 1.1978559947079694 2.798191603637817 1.1978559947079694 L 2.4189846201702654 1.1978559947079694 L 2.4189846201702654 0.23957119894159373 M 2.792715690519152 1.1348829938433218 Q 2.9255065836467784 1.1348829938433218 3.0268109763420807 1.0821773300761712 Q 3.1281153690373835 1.0294716663090206 3.1828745002240333 0.9350121650120493 Q 3.2376336314106835 0.840552663715078 3.2376336314106835 0.7187135968247815 Q 3.2376336314106835 0.5968745299344853 3.1828745002240333 0.502415028637514 Q 3.1281153690373835 0.40795552734054263 3.0268109763420807 0.35524986357339194 Q 2.9255065836467784 0.30254419980624137 2.792715690519152 0.30254419980624137 L 2.488802512433244 0.30254419980624137 L 2.488802512433244 1.1348829938433218 L 2.792715690519152 1.1348829938433218 M 3.563435087703462 0.23957119894159373 L 3.6332529799664406 0.23957119894159373 L 3.6332529799664406 1.1978559947079694 L 3.563435087703462 1.1978559947079694 L 3.563435087703462 0.23957119894159373 M 4.164393156852049 0.30254419980624137 L 3.819410630376154 0.30254419980624137 L 3.819410630376154 0.23957119894159373 L 4.579193575590923 0.23957119894159373 L 4.579193575590923 0.30254419980624137 L 4.234211049115028 0.30254419980624137 L 4.234211049115028 1.1978559947079694 L 4.164393156852049 1.1978559947079694 L 4.164393156852049 0.30254419980624137 M 5.426575087990118 1.1348829938433218 L 5.426575087990118 1.1978559947079694 L 4.765358578911319 1.1978559947079694 L 4.765358578911319 0.23957119894159373 L 5.4060404137951235 0.23957119894159373 L 5.4060404137951235 0.30254419980624137 L 4.8351764711742975 0.30254419980624137 L 4.8351764711742975 0.6803822049941266 L 5.345805369489809 0.6803822049941266 L 5.345805369489809 0.7419862275791078 L 4.8351764711742975 0.7419862275791078 L 4.8351764711742975 1.1348829938433218 L 5.426575087990118 1.1348829938433218 M 5.19932469356552 -2.220446049250313e-16 L 5.29789112970149 -2.220446049250313e-16 L 5.082961539793889 0.16153943700061757 L 5.009036712691911 0.16153943700061757 L 5.19932469356552 -2.220446049250313e-16 M 6.360226964526034 1.1978559947079694 L 6.13160759182177 0.8775150772660667 Q 6.080955395474119 0.8843599686643979 6.038517068804465 0.8843599686643979 L 5.764721412871215 0.8843599686643979 L 5.764721412871215 1.1978559947079694 L 5.694903520608237 1.1978559947079694 L 5.694903520608237 0.23957119894159373 L 6.038517068804465 0.23957119894159373 Q 6.21922220172041 0.23957119894159373 6.321895572695379 0.32513234142073444 Q 6.424568943670348 0.41069348389987514 6.424568943670348 0.562650072942829 Q 6.424568943670348 0.6762752701551278 6.366387366784532 0.7536225429562711 Q 6.308205789898716 0.8309698157574141 6.200056505805083 0.862456316189738 L 6.439627704746677 1.1978559947079694 L 6.360226964526034 1.1978559947079694 M 6.038517068804465 0.8227559460794167 Q 6.1918426361270855 0.8227559460794167 6.272612354627394 0.7549915212359373 Q 6.353382073127703 0.6872270963924578 6.353382073127703 0.562650072942829 Q 6.353382073127703 0.43807304949320014 6.272612354627394 0.3703086246497207 Q 6.1918426361270855 0.30254419980624137 6.038517068804465 0.30254419980624137 L 5.764721412871215 0.30254419980624137 L 5.764721412871215 0.8227559460794167 L 6.038517068804465 0.8227559460794167 M 6.694217557979063 0.23957119894159373 L 6.764035450242042 0.23957119894159373 L 6.764035450242042 1.1978559947079694 L 6.694217557979063 1.1978559947079694 L 6.694217557979063 0.23957119894159373 M 7.704500132747859 0.928167273613718 L 7.148694951203361 0.928167273613718 L 7.026855884313065 1.1978559947079694 L 6.951562078931421 1.1978559947079694 L 7.392373084983954 0.23957119894159373 L 7.462190977246933 0.23957119894159373 L 7.903001983299466 1.1978559947079694 L 7.827708177917822 1.1978559947079694 L 7.704500132747859 0.928167273613718 M 7.678489545434201 0.8693012075880693 L 7.42659754197561 0.3162339826029038 L 7.176074516796687 0.8693012075880693 L 7.678489545434201 0.8693012075880693"
         fill="#004a80"
         fill-rule="nonzero"
         id="path1"
         style="fill:#6d435a;fill-opacity:1" />
    </g>
    <g
       id="g2" />
    <g
       clip-path="url(#SvgjsClipPath1002)"
       id="g5">
      <g
         clip-path="url(#a39345484-a7d9-4c0e-aaa4-118612680802f2669346-4069-4d0d-a339-6b0cc17258f5)"
         id="g3">
        <path
           d=" M 6.56184437534755 -0.4174434021703668 C 6.501861291095268 -0.3809195686734155 6.450052945757086 -0.3493830758901142 6.40502438388528 -0.3404358616474319 C 6.2627689272589615 -0.31213176562741207 6.113403697705515 -0.42315071988929454 6.071802526369254 -0.45709463578399845 C 5.982292885140073 -0.5377845586985153 5.885988460923572 -0.5706935076481301 5.783024249408245 -0.5765883193788497 C 5.680682518012065 -0.5824456323072109 5.572505972968938 -0.5615213005912985 5.457999630087737 -0.5347321561865526 C 5.402426404992786 -0.5217275715287055 5.359265283478421 -0.5184126774002342 5.3264538314149386 -0.5221700573965329 L 5.333826095958573 -0.5376195639681391 C 5.3561378833617415 -0.5844480683531419 5.380294611840936 -0.6351389493810462 5.412123595282633 -0.6791625433496513 C 5.48219385736929 -0.7760819479248262 5.393629185959536 -0.8494071060561792 5.30291958305489 -0.7814067778596998 C 5.260628433755238 -0.7495027968132861 5.224104600258286 -0.693209594713057 5.212787461706561 -0.6393388152451731 C 5.199872874174375 -0.5778257798566715 5.220309721459629 -0.5233100209882249 5.282970220200292 -0.5014482192133558 C 5.275275465956376 -0.48636620090486105 5.26758071171246 -0.47230415002051096 5.259653464893923 -0.4597945495537923 C 5.222604648163956 -0.40129641787489767 5.177231097310453 -0.37434977850024787 5.089356403864092 -0.4299755019184994 C 4.905019791231326 -0.5466567753364808 4.725588021947022 -0.5991775979194696 4.550828603436557 -0.6226668477166877 C 5.010331427774282 -0.7385606462851451 5.465574388164106 -0.8857209462599256 5.72162371042682 -1.0225315767838241 C 6.011834441637915 -1.1775966242957265 6.137275435286788 -1.3865624503174026 6.1429527539638284 -1.570479076363755 C 6.147977593479837 -1.7331863797962717 6.058910438118483 -1.8747818575010857 5.912185124251058 -1.9442146399476519 C 5.737815693285119 -2.0267420041777244 5.478263982882144 -2.0105425215589543 5.183470898022868 -1.8100814239121332 C 5.113430634978099 -1.7624504451566638 5.0489551942032955 -1.7133870121511077 4.986264696420746 -1.6635736030983876 C 4.986354693546406 -1.779759892325239 4.956558145192527 -1.893831249099085 4.91569945014296 -2.001895297735137 C 4.87568822802669 -2.107754416792523 4.824209872149262 -2.208603695854845 4.7763913993820015 -2.293740976729052 C 4.720203193928375 -2.3937652821394924 4.69414152628938 -2.4845123838464964 4.692071592399203 -2.57561947405614 C 4.690001658509027 -2.6671165518103095 4.7120209552538 -2.7596485965095683 4.751964679525827 -2.862732804192442 C 4.8213299641281475 -3.0417220876089193 4.864243593546948 -3.184772518845233 4.892390194597062 -3.3274104632556067 C 4.920514296365762 -3.4699209117379626 4.933878869526248 -3.6120263731548485 4.94413854185147 -3.789230713579072 C 4.962985439916735 -4.114607821641749 5.074941864237574 -4.365234817083458 5.191150652745842 -4.625394008084637 C 5.314401716336991 -4.901310195836761 5.4424151278276405 -5.187876043458632 5.471281705883034 -5.585955829533516 C 5.48283133700938 -5.745243242190959 5.458502114039337 -5.8388702519190785 5.330068715962275 -5.941691967985444 C 5.178753548686199 -6.0629480952911345 4.980347385408612 -6.320519868929594 4.7730315066907 -6.4397510609079385 C 4.6318710150932425 -6.520935968013585 4.486525657152603 -6.6045282982306315 4.348410068306635 -6.694960409997827 C 4.154601258198172 -6.8218638569386725 4.137621800490349 -7.017480109320804 4.113172581352759 -7.299366106408364 C 4.107637758124679 -7.363204067543076 4.101720447112545 -7.431429388553706 4.093193219456275 -7.505122034948171 C 4.0815910900066275 -7.605408831975118 4.059834284878361 -7.677879017412703 4.033690119874178 -7.7139978638441855 C 4.00738845990009 -7.7503267035688745 3.972259581850866 -7.7549840548217714 3.9421780425990645 -7.719720181084058 C 3.9155313936432807 -7.688498678240565 3.8897547169022086 -7.621510817707757 3.8693103698564815 -7.512861787754917 C 3.8602581589671963 -7.464780823371148 3.8525259059209214 -7.418372305572557 3.8449736471259666 -7.373073752323772 C 3.800095080463594 -7.103997346121796 3.761666307806842 -6.873567205630249 3.516214147090574 -6.690895539822191 C 3.3991503858885386 -6.603763322662523 3.277346776068417 -6.520373485978211 3.155333172955091 -6.436841153844936 C 2.939092579275912 -6.288795882134501 2.722162007633342 -5.9968002079311535 2.5259682736948923 -5.823443244628887 C 2.4104944617128465 -5.721424002932988 2.3982848516649957 -5.6410415701978085 2.428208895946892 -5.49393376854633 C 2.4709800299167304 -5.283662984202586 2.533738025543525 -5.093671552174195 2.6144504477394572 -4.915019757978942 C 2.6951703696958615 -4.7363604640232175 2.7938072194190453 -4.569055807421577 2.9083810601444924 -4.4041735734522796 C 3.00680791657447 -4.26245809957992 3.0653960453790248 -4.151214152503886 3.1014248946848473 -4.03355791022459 C 3.137513742074443 -3.915699174412559 3.151238303737568 -3.790573170703496 3.159848028759026 -3.6214385725467713 C 3.169440222402271 -3.4328795947684645 3.1834647744842623 -3.1850200109407956 3.3366848809201386 -3.051404278377822 C 3.387465759073703 -2.8487157518709205 3.401355315467205 -2.7166524697255774 3.3921231103266 -2.6150682141370343 C 3.382898404946466 -2.5135439566322644 3.350191949529586 -2.441508757302035 3.3081557920859694 -2.358853897143944 C 3.273199408527594 -2.2901185924212424 3.2507901242382937 -2.2099611525002123 3.2914763247970127 -2.1387734261032785 C 3.2046965963795127 -2.1061569678120584 3.1568331250494217 -2.0272969864526242 3.1291440093880776 -1.9424296969553971 C 3.084295441767591 -1.8049740870309359 3.0487390773714833 -1.7365462724875709 2.9927833644924786 -1.7097271290409388 L 2.9889659864124067 -1.7079871846115156 C 2.8939365214760877 -1.7634554130598632 2.7966646281587453 -1.811153889659578 2.694157902032189 -1.8447828156144714 C 2.4082820323737093 -1.9385748200729678 2.1763069412250027 -1.907750804534472 2.0288766498732427 -1.8123688508559859 C 1.9034581555057852 -1.7312364420736408 1.8325779192881904 -1.5978082035224581 1.8555721848942792 -1.447707997442789 C 1.8777339770880148 -1.303105115788843 1.9868779912319847 -1.1493150275571198 2.2037335652698387 -1.0281938959399204 C 2.3794529531206745 -0.9300520304078654 2.5986709517070996 -0.8702639399278462 2.8262211841775313 -0.8457247236645964 C 2.940990018675241 -0.8333501188863686 3.0579337837097307 -0.8299302281112944 3.172552622998007 -0.835067564034377 C 3.2366905745515857 -0.8133032591456386 3.2988035907778186 -0.7870240984529664 3.357526715270863 -0.7529151878278872 C 3.60374385155524 -0.6099847527591189 3.859658178129464 -0.6107272290458132 4.126957141099657 -0.6114997043743928 C 4.205682126770602 -0.6117321969490144 4.285412080344749 -0.6119496900026924 4.36612450254068 -0.608447301862431 C 3.902174320243266 -0.49975327334675956 3.45998844283459 -0.4287755402430333 3.244857813705216 -0.439357702268536 C 3.061706163226972 -0.4483724143554628 2.895218980516741 -0.41730840648187595 2.7520335535919367 -0.3906017594423181 C 2.607333175051859 -0.3636026217443664 2.390020115625234 -0.3023520779723743 2.298493038829177 -0.4569896391373929 C 2.3601335701456954 -0.4904085717990796 2.4060996020764573 -0.5590238803542356 2.432971243846392 -0.6896622080099633 C 2.444040890302552 -0.7434729893940757 2.4375460977341006 -0.7849691640837335 2.4210841234988214 -0.8120507991468733 C 2.4028072072294018 -0.8421173388777303 2.37131571300893 -0.8561418909597229 2.3368618134021553 -0.8479671520456211 C 2.3085127188193058 -0.8412548664234905 2.2786261733397675 -0.8194230636905084 2.253966960908971 -0.7810842881594171 C 2.2231129463285892 -0.7330258230570621 2.213520752685345 -0.6760276434724988 2.21753312453768 -0.6194644499952897 C 2.2211555088454884 -0.5684135804647452 2.235937536735117 -0.5175427051855213 2.256104392643393 -0.4740740934918186 C 2.187736576183802 -0.4494373803424381 2.101436832436488 -0.4610320100316132 2.0017800152891585 -0.4744340819944579 C 1.871884163920124 -0.49190102413293957 1.720344003829899 -0.512037880999328 1.5553417736930546 -0.46531437326092817 L 1.5552667760883385 -0.46555436559602015 C 1.5537068259102347 -0.46505188164442046 1.552214373576375 -0.46451189889046063 1.5506619231587426 -0.46400191517838874 C 1.4993485620116913 -0.44925738609111754 1.379509889435143 -0.39635407572407555 1.3257141075719747 -0.3714548709581873 C 1.2516614726748703 -0.33719596512367556 1.1877110151330834 -0.3075944105420598 1.1286354018978701 -0.2967122580976911 C 1.0184489210483403 -0.27647040458469796 0.8396771306855411 -0.33192363351210297 0.8378846879328157 -0.33247861578700455 L 0.8287874784807007 -0.30355953940830993 C 0.8351622748816061 -0.30155710336237895 0.9627781990672584 -0.2619133695092204 1.0731821729704658 -0.2619133695092204 C 1.0944664931890173 -0.2619133695092204 1.1151208335279503 -0.26339082232213595 1.1341327263235914 -0.26689321046239733 C 1.1969807190760458 -0.2784728406306298 1.2625436251192386 -0.30880187197799547 1.3384562006133136 -0.3439382497876915 C 1.4042515992311269 -0.37438727730260357 1.4788292173612476 -0.4088936752326804 1.5646264771569611 -0.4367177865825136 L 1.5645664790731875 -0.43692028011524897 C 1.723456404425634 -0.48155135468205756 1.8711566871543728 -0.461924481527741 1.9978126419996536 -0.4448850257361441 C 2.104729227283542 -0.4305079849119853 2.1974037674317612 -0.418065882289512 2.271133912628585 -0.444750030047655 C 2.3704757398361043 -0.2687306517779522 2.596661015900694 -0.33129365363248375 2.7574108818501113 -0.36128519575862583 C 2.899036358596811 -0.38770685190025933 3.0637010995124303 -0.4184258707921513 3.2434478587365443 -0.4095836531960728 C 3.4757829383878907 -0.3981465184768007 3.967294740418631 -0.48010390091102906 4.466988781123945 -0.6018850114497338 C 4.66357250260692 -0.5844030697903104 4.865818543245993 -0.5361871097180515 5.073464411424657 -0.40474630769185627 C 5.181775952156274 -0.3361909972204744 5.238316646352067 -0.3703749054502685 5.284890158881034 -0.44391005687483 C 5.294609848452297 -0.4592395672788889 5.303714557664884 -0.4761290278610524 5.312714270230868 -0.49406845490924667 C 5.350588060612717 -0.4879411506039055 5.400468967509683 -0.49059606581087145 5.464771913793638 -0.5056480850774792 C 5.577058327575231 -0.5319197460096801 5.682857448548844 -0.5524465904205957 5.781381801864952 -0.5468067705459125 C 5.873486360217327 -0.5415344389343408 5.959891100611244 -0.5131628450700756 6.040483526639629 -0.44481752789189954 L 6.040003541969444 -0.4442850448984119 C 6.04688082232195 -0.4380302446650539 6.194738600020594 -0.3054644785681102 6.356785924531605 -0.3054644785681102 C 6.374717851819329 -0.3054644785681102 6.392837273118842 -0.30709942635093057 6.410949194657886 -0.3106918116168522 C 6.46123508862032 -0.32068899232556625 6.5151808656929235 -0.353515443909993 6.577623871379908 -0.39155422902221826 C 6.6995999756908775 -0.4658168572125305 6.851410127158083 -0.5582364055047142 7.081082791841992 -0.5582364055047142 L 7.081082791841992 -0.5885654368520798 C 6.842912898543699 -0.5885654368520798 6.680460586967219 -0.4896585957519157 6.56184437534755 -0.4174434021703668 M 2.247322173131087 -0.6215643829273532 C 2.243722288104693 -0.6722252649133713 2.252069521509644 -0.722901146420333 2.279083658728539 -0.7649673029058359 C 2.2992280153553994 -0.7962863026354601 2.322439774015166 -0.813835742139128 2.3437540932756047 -0.8188830809365513 C 2.3656383943318895 -0.8240654154224636 2.384027807008383 -0.8157031824965699 2.395614936937087 -0.7966312916171558 C 2.4084620266250285 -0.7754894668475654 2.4131943754826426 -0.7414630535876752 2.403767176569774 -0.69562451758493 C 2.379827941144257 -0.579250734346286 2.338631756873466 -0.5171752169224115 2.283268525071721 -0.48637370066533236 C 2.264474125329758 -0.5267749103261279 2.250689565582859 -0.5740908991417886 2.247322173131087 -0.6215643829273532 M 3.330407581405365 -3.865518277096729 C 3.371476269748138 -4.092768519148294 3.457033537208759 -4.306256700734377 3.582917016725458 -4.499105541502468 C 3.5922617182731384 -4.453439499990571 3.591766734082009 -4.399478723397026 3.579579623315573 -4.332595859510823 C 3.5385034352123284 -4.107018064044436 3.6194933485457113 -3.9563703754503363 3.7453468290205247 -3.8754254606797836 C 3.8289766580399305 -3.8216296788166146 3.932383355423086 -3.7990029014736364 4.0327226507733345 -3.805895181347086 C 4.133174442530658 -3.8127874612205352 4.2308513229134705 -3.849311294717486 4.3028790224832285 -3.9137867354922897 C 4.40667570741091 -4.006701267975602 4.457171594666551 -4.156733976211026 4.38649385198169 -4.358612528586988 C 4.315171129896267 -4.562328522278506 4.297411697099394 -4.717888553981537 4.3150136349263635 -4.86378889419708 C 4.332668071076635 -5.010094221478093 4.385953869227731 -5.147557331163025 4.456504115984574 -5.31424700740599 C 4.508319961083226 -5.436658097824315 4.487778117151368 -5.4945262496235925 4.4658413177717815 -5.556331775670486 C 4.44763939910708 -5.607637637057066 4.441429597436551 -5.606475174183961 4.442434565339752 -5.660923435208163 C 4.444287006176251 -5.757422853196926 4.44714441491595 -5.905970608858962 4.387138831382254 -6.029319169336243 C 4.352834926984912 -6.099831917290727 4.298169172907031 -6.156965092563781 4.232418772852046 -6.191846478517441 C 4.169323288004027 -6.22531790950243 4.0960056296331455 -6.238464989609238 4.0205880383301995 -6.223330472977441 C 3.9710071218521 -6.213370791071086 3.926586040578498 -6.19859626294193 3.8745527024261674 -6.2031111187458645 C 3.7974026664542704 -6.209808404847051 3.734367179690025 -6.198723758869947 3.682378840100524 -6.17151462787879 C 3.6302255057806474 -6.144215499761971 3.5897792975570213 -6.100986880403362 3.557912815312966 -6.043456217825309 C 3.4903324737028982 -5.921457614232926 3.496294783277863 -5.853277291785126 3.5034045562049907 -5.736431023636769 C 3.507911912248454 -5.662303391134946 3.5098093516477826 -5.6152873927381535 3.4976747392046477 -5.540582278680015 C 3.485090141133213 -5.463132252289251 3.474147990605071 -5.39585190109805 3.5454032148462487 -5.310264634595542 C 3.564295111474343 -5.2875928586897345 3.585909421153648 -5.267096013320707 3.6060687773014517 -5.2455267022042324 C 3.6126610667560355 -5.15756201163221 3.6296105254219713 -5.0728897159072455 3.6685642813117387 -4.972827911694447 C 3.6975208564927917 -4.898437787576119 3.708305512051029 -4.837509733504407 3.69964328870627 -4.7788991054184375 C 3.690966065840567 -4.720168481164921 3.6626394705391325 -4.662810313077717 3.6134410418450873 -4.595634958533118 C 3.606737166645001 -4.586480225007602 3.600119585020602 -4.57726261131317 3.5935891758766254 -4.5679833416741396 C 3.546738172210203 -4.672320009355773 3.4250395590366858 -4.746462641378537 3.333677476971005 -4.811230572811734 C 3.136036289261527 -4.951056107045238 3.089762767151426 -5.055190281194143 3.01865003835921 -5.215235169659224 C 2.9910959183863564 -5.277258188759797 2.9598669157823916 -5.347530944379187 2.9151758431318098 -5.431018277949633 C 2.8664348998265354 -5.522065370075503 2.859737613725349 -5.585295850612012 2.9440874197500335 -5.656393579883284 C 3.047951602521959 -5.743953283389837 3.136898761715767 -5.940394509423852 3.2294608054569114 -6.033639031367917 C 3.3820809310550555 -6.187399120557751 3.5452382201158725 -6.35764368326428 3.801085048845852 -6.538072920691315 C 3.914518925979607 -6.618072865642441 3.972424576581242 -6.6706386867882586 4.086863421618199 -6.589056292377613 C 4.234721199316843 -6.483647158948527 4.387266327310272 -6.375650608156719 4.523071989930969 -6.264631653894837 C 4.659357637221852 -6.1532152123279555 4.777336369201429 -5.90954799460394 4.91284204140326 -5.788291867298251 C 5.016728723456601 -5.69533983601258 5.023763498779012 -5.582663434686462 4.985387224445562 -5.453990044274306 C 4.951585803999821 -5.340511168577722 4.912242060565528 -5.230197191800173 4.885565412567858 -5.114333392273602 C 4.849604061106279 -4.958180879493309 4.793123364994258 -4.899705247095828 4.686349275159332 -4.786638858225184 C 4.469928687228833 -4.557476177253347 4.5999595342863575 -4.267715431670552 4.6829068851028435 -4.012836072041416 C 4.7203156903354495 -3.897924742094744 4.752189672339975 -3.7573942303769052 4.762584340353687 -3.6166912241682185 C 4.7727315162718345 -3.4793181116089453 4.762419345623311 -3.3419599985706157 4.716738304590471 -3.228631118083463 C 4.6470655298088115 -3.055776638732799 4.509542422040106 -2.974621730669039 4.330538139102686 -2.961422152238929 C 4.2264329897370905 -2.953811587753039 4.122115379191558 -2.9494571003654935 4.017738129350959 -2.9483650692577807 C 3.9206087314825897 -2.9473751008755222 3.8211694073889393 -2.9493100390772087 3.7257649544290383 -2.955227350089343 C 3.5560528747159967 -2.9657495140310726 3.4413365385415884 -3.0036758027362236 3.3633090305945075 -3.0680687461458387 C 3.293996244315488 -3.344734909945127 3.284899034863373 -3.613668820698142 3.330407581405365 -3.86551827709673 M 3.6062412717923005 -4.533919429611884 C 3.6164430216438186 -4.548769056530139 3.626866355070113 -4.5634652316032405 3.6375077731986254 -4.578003021664266 C 3.689646107997556 -4.649175748540252 3.7197576462912436 -4.710643785365923 3.729199844725055 -4.774579243386766 C 3.7386645424402816 -4.838627197814684 3.727257406762897 -4.904227602660236 3.6963733931406284 -4.983575068450327 C 3.6649193977225147 -5.064354988490505 3.648262429714973 -5.135107728780082 3.6398776975076648 -5.206197958290883 C 3.661731999522062 -5.17787886274992 3.6819213547117533 -5.144294935357857 3.6963358943382705 -5.101276309292453 C 3.713142857555246 -5.051125411018508 3.7317872620877752 -5.009029255491118 3.7600538593054362 -4.970600482834367 C 3.7883729548463996 -4.932081713051956 3.8260742507374004 -4.859499031207296 3.8808300019409403 -4.824835138307314 C 3.9161763730438426 -4.802463352820372 3.9548076392333282 -4.787868818942535 3.9961613184740243 -4.786841351757918 C 4.037612494600852 -4.78580638481283 4.0812910995877605 -4.798398482644736 4.126402158824755 -4.830399960577281 C 4.176673053266246 -4.866061321619991 4.212206918380939 -4.9385840053808785 4.239266054162664 -4.977207771809893 C 4.266287691142031 -5.015801539197021 4.284549607890508 -5.058197685143277 4.3003591029647525 -5.109998530720986 C 4.35197245453067 -5.274303283133966 4.376414173907788 -5.36400041837494 4.354732366384239 -5.538827334729648 C 4.3477050908223 -5.595443026530159 4.340797811427906 -5.620094739200482 4.32951817167854 -5.6724730663345095 C 4.318156034563986 -5.725188882689761 4.30239153805257 -5.745288240753791 4.2777098263403595 -5.792559231006622 C 4.180205440448395 -5.979295766990316 4.012960781930527 -5.950061700671811 3.837316391684408 -5.927074934826194 C 3.6106511309496314 -5.897353384077034 3.608033714545024 -5.744703259437003 3.605978780175791 -5.56355404500469 C 3.605683807749948 -5.538582075293848 3.6052238123968543 -5.513612327540045 3.60459882424901 -5.488646437413951 C 3.602813881256753 -5.415936259641137 3.6012539310786496 -5.352075799225011 3.603533858262032 -5.291215242997545 C 3.5907617661788067 -5.304362323104353 3.5786271537356713 -5.316924421894372 3.568307483326677 -5.329299026672599 C 3.50576698075356 -5.404416627556678 3.515696663618029 -5.465494676837822 3.527126298576829 -5.5357974314991 C 3.5395909004807162 -5.6125274808845855 3.5378359565303494 -5.632206852362203 3.533201104558868 -5.708366919951842 C 3.5263688227691916 -5.820563336607775 3.5206465055293203 -5.914662831245608 3.5839669831914884 -6.028974180354547 C 3.6130585540610323 -6.0814800034165915 3.6495373889951535 -6.12071125044381 3.6961708996078935 -6.145122970779042 C 3.7429844044719536 -6.169624688239933 3.80062756345708 -6.179524372062515 3.8719802845843896 -6.1733370696734 C 3.9283784833312216 -6.168439726085412 3.973107054784162 -6.183431747268245 4.026430351737616 -6.194133905461295 C 4.094640673227303 -6.207828468082535 4.161103550527095 -6.195851350609304 4.218401720530526 -6.165454821417693 C 4.278647296399315 -6.133490842287507 4.328775695391846 -6.0810750163511225 4.360267189612318 -6.016352083480754 C 4.417212870873581 -5.89928832227872 4.41443795949907 -5.755075428169299 4.412638016985873 -5.661395920117878 C 4.411565551238427 -5.602920287720397 4.4181653404534815 -5.601405336105124 4.437679717200724 -5.546409592566491 C 4.457644079576264 -5.490168888789562 4.476325982911153 -5.437513070518085 4.42904749289785 -5.325811638053281 C 4.357492278237807 -5.156729538219858 4.303411505476715 -5.017136496560976 4.28533708274003 -4.8672912823373435 C 4.267202661919573 -4.717041081048242 4.285329582979559 -4.557326182043914 4.358332251410632 -4.348795342129595 C 4.4243151440402375 -4.1603338612374205 4.378356611869946 -4.021325800895327 4.283012156993818 -3.9359785267279133 C 4.216121793347143 -3.8760929393617616 4.124872207688537 -3.842134023946116 4.030735214248345 -3.835676730180022 C 3.936470724880136 -3.829196937132514 3.8395588200654323 -3.850301263099746 3.761471314034578 -3.90053465873888 C 3.6450900310354633 -3.9753822682459794 3.5703924167377963 -4.115837782359101 3.6089111865202077 -4.327338527420196 C 3.6245856859059633 -4.413390779071944 3.622568250339089 -4.479403670743436 3.606241271792299 -4.533919429611884 M 3.635152848410523 -5.258021303150006 C 3.630480497636683 -5.32862404823015 3.63228044014988 -5.401986705163862 3.634395372602886 -5.487948959689953 C 3.63500285320109 -5.513088156790934 3.635490337631747 -5.538174855568615 3.635767828769198 -5.563321552430067 C 3.6376802676894697 -5.732531148191508 3.640147688884644 -5.871164220510019 3.8411712685668378 -5.897525878567881 C 3.9998811996679637 -5.91830021507436 4.162573503579539 -5.948696744265971 4.25131066948014 -5.778774671259724 C 4.274507428618963 -5.73434609022565 4.289446951478496 -5.716699153835849 4.300306604641451 -5.666278264184923 C 4.311241255409121 -5.615512385552302 4.318088536719741 -5.591355657073108 4.325048314437435 -5.53520495042184 C 4.3460851425604226 -5.365627866397288 4.321905914799812 -5.277985665525548 4.271845013651527 -5.118638254784331 C 4.256927990073409 -5.069762315790567 4.2398660350003965 -5.029991086009389 4.21483933430649 -4.994262227122434 C 4.189850132414941 -4.958578366798307 4.156566195441744 -4.88836560926269 4.109107711177122 -4.854691684744967 C 4.069711469419528 -4.826747577227587 4.032137669456545 -4.815737928855199 3.9968662959583594 -4.816622900590854 C 3.961482426053099 -4.8175003725660375 3.9278684996191493 -4.830347462253981 3.8967219943803735 -4.850064332533956 C 3.845378634191435 -4.882568294418101 3.8102497561422113 -4.952706054349003 3.784128090419443 -4.988232419703224 C 3.7579314270919584 -5.023841282422634 3.7404794844744207 -5.063387519389661 3.724609991316403 -5.1107335072472075 C 3.7025681952902136 -5.176513906344079 3.6687967738863594 -5.221144980910887 3.635152848410523 -5.258021303150006 M 3.157538102533756 -1.9332049915752672 C 3.1831572843049236 -2.011749982994891 3.227083381387397 -2.086057609748032 3.309130760947284 -2.1133192390624913 C 3.3326950083492184 -2.0847151526236054 3.3653864642451548 -2.061293400670632 3.403455248399267 -2.040736557217831 C 3.5403558760488254 -1.9668189180092162 3.737554577890476 -1.90976824010135 3.955580114561908 -1.89302877472862 C 4.142346649587489 -1.878696732467291 4.344697686873166 -1.8939137464642748 4.537854017820596 -1.9534243458068437 C 4.610436699665256 -1.975781131772842 4.650185430165019 -2.0189422532872063 4.662065050752117 -2.0595009579179075 C 4.670329786791879 -2.087715056812267 4.666002424999736 -2.118434075704158 4.644365616039016 -2.139583400234221 C 4.623418785041688 -2.160065246082305 4.588222409148219 -2.1691249567320634 4.541641396858781 -2.1561278718346877 C 4.350082514891813 -2.1026545796718006 4.172015702013351 -2.08491764615634 3.994076385062905 -2.0885025316617902 C 3.81582207817265 -2.0920949169277128 3.637177783737869 -2.117136617142563 3.4450939185378857 -2.1491080960332205 C 3.398505406487976 -2.1568553486004385 3.357286722935769 -2.1560903730323293 3.3209203844087223 -2.1476531425017207 C 3.280961660615754 -2.2102161443562522 3.3036184370006185 -2.283991288115905 3.334802441041753 -2.34530182997167 C 3.37824855345404 -2.430739101264744 3.4120799729416675 -2.5053992167600523 3.421807162273402 -2.6123832998881866 C 3.430769376037028 -2.711050148653256 3.4188972552104007 -2.836438643978827 3.3745436717810433 -3.02235020631064 C 3.455608582719144 -2.9676694527118164 3.5677600008122465 -2.935127992025313 3.7240100104786706 -2.92545330101688 C 3.8196244567317783 -2.919520990483803 3.919776258070235 -2.9175860522821155 4.017970621925592 -2.9185910201853176 C 4.129079573313135 -2.9197234840165374 4.237016126021168 -2.92459082856264 4.332638072034747 -2.9316481031664656 C 4.52335698082889 -2.9457026542903435 4.670344786312823 -3.033727342946138 4.744427420251813 -3.2175389723458876 C 4.791990901163038 -3.3355402036068797 4.802813055523634 -3.4774281719700877 4.792373388947093 -3.618791157100281 C 4.781791226921589 -3.762119079474046 4.74935476288169 -3.905154511189417 4.71130097824852 -4.022053277661077 C 4.632800985391726 -4.263230574908503 4.503160125878727 -4.549218940974056 4.708083581006181 -4.7662095107004 C 4.818757546286369 -4.883400767830454 4.877360674611867 -4.945731277110365 4.914656983437399 -5.1076736049747735 C 4.941161136944221 -5.222757429412293 4.980407383492383 -5.332681418645314 5.014013810165862 -5.445462816618036 C 5.055764976711555 -5.585430846300502 5.045475305344446 -5.709566881627307 4.932708906892668 -5.810483658533872 C 4.795845778045468 -5.9329547470359705 4.677349562593346 -6.177109449190642 4.541993885600949 -6.2877609151894145 C 4.406165723698836 -6.398802368732714 4.253140611035223 -6.507143908506215 4.10415786926583 -6.613348016545299 C 3.979376854538464 -6.702302675499578 3.907619146345685 -6.649729354593289 3.7839030976052923 -6.562484641026545 C 3.526038833308439 -6.3806229493494255 3.3618690765839485 -6.209365918979223 3.2083189806873196 -6.054668359730431 C 3.1162894199396627 -5.961956320779854 3.0278597442183988 -5.766040077978856 2.924805535577411 -5.679170352435696 C 2.829123591480059 -5.598502928802594 2.833338456865128 -5.520767911513907 2.888889182678664 -5.417001225628113 C 2.933272765149908 -5.334076374093042 2.9641642785326474 -5.264561094281287 2.9914259078471073 -5.203205553862693 C 3.06456357196667 -5.038608310791319 3.112157051919782 -4.93151173125611 3.3165030254909182 -4.78693884864405 C 3.4090200706692326 -4.720985955056332 3.5322036364161375 -4.64776579357158 3.572282356376653 -4.537046829728563 C 3.436394196390767 -4.335288273520147 3.3444171339664117 -4.110595449789415 3.3010835179611995 -3.8707681094268866 C 3.2573449148905174 -3.6287433392461645 3.2631572292560485 -3.371441556984684 3.323312807999179 -3.106895006107587 C 3.210561409068344 -3.235748390771061 3.197916812913136 -3.460178722885285 3.189637077352431 -3.622953524162048 C 3.1809148559238984 -3.7943380504602677 3.1669053033628503 -3.9214514906943196 3.1299389839980716 -4.0421976342879375 C 3.0869128581721967 -4.1827056467243615 3.0158826267451686 -4.301044367206577 2.932890277365854 -4.421205529483406 C 2.819306405022665 -4.584715307286391 2.721562026795608 -4.750475013230872 2.641674578251557 -4.927281866350098 C 2.561787129707506 -5.104111218750738 2.4996966127626887 -5.292047716409897 2.4574129632235078 -5.499896078121296 C 2.4296938485202775 -5.63618922517265 2.438678561565318 -5.706574477199116 2.5457151430167544 -5.801138956986192 C 2.736606546301744 -5.969816069754146 2.948519778188779 -6.255294452107628 3.1601705184593056 -6.403669713278816 C 3.160058022052231 -6.403782209685891 3.1638079022880574 -6.406482123455686 3.172155135693008 -6.412196940935086 C 3.1681652631220887 -6.409459528362932 3.164167890790697 -6.406467123934743 3.1601705184593056 -6.403669713278816 C 3.160905494985528 -6.402934736752594 3.326957691588403 -6.51287372550656 3.533973579887448 -6.666948804636204 C 3.7891454301749783 -6.856857739299408 3.8284891736092717 -7.092732705893376 3.8744177067376766 -7.3681689089753135 C 3.8820074643349893 -7.41369995479872 3.8897847159440935 -7.460333465411461 3.8986344333006446 -7.507371963089669 C 3.9180513131617545 -7.610568667179618 3.9413755682285965 -7.672831678615284 3.9648423187443993 -7.700333300264837 C 3.982114267110617 -7.720575153777829 3.994691365421579 -7.7169377699490775 4.009510892113566 -7.696470923621936 C 4.032797648378049 -7.664304450959015 4.052514518658025 -7.5968516052769655 4.063516667269941 -7.5017396429754575 C 4.071871400435363 -7.429479450831079 4.077818710489384 -7.360931640120168 4.083383532759351 -7.29679368856659 C 4.108575228183634 -7.0063729640622885 4.126072169364002 -6.804839400668023 4.332053090717958 -6.669971208106281 C 4.469381204714401 -6.580041580290688 4.615896525288619 -6.495781771391663 4.758196980477768 -6.413944385124982 C 4.964342896562101 -6.295388171589087 5.161616596008469 -6.038461377351189 5.311379312866913 -5.918450210283795 C 5.431997960532513 -5.821883294450787 5.452322311410693 -5.7374884898632725 5.441492657289626 -5.588055762465582 C 5.4129935674973435 -5.1951208120742525 5.28609762031697 -4.91104488492897 5.163926522233738 -4.637543620048718 C 5.046570270373308 -4.374812011205761 4.933511381263135 -4.121717594568878 4.914349493258062 -3.7908656613618947 C 4.904172318298028 -3.6152062715948317 4.890927741305088 -3.474353270176712 4.863066131152896 -3.3331327804954807 C 4.8352195205216475 -3.192039786742268 4.792763376491619 -3.0505343061631143 4.7241555676969345 -2.8734874607087946 C 4.682861886540012 -2.7669233641670736 4.660115113029487 -2.670828933243781 4.662282543805794 -2.575034492739354 C 4.664464974103046 -2.478842564929929 4.691689104615147 -2.3835656078980456 4.750337231503476 -2.2791389430907456 C 4.79762322127725 -2.194954131796438 4.848456597754116 -2.0954023112957127 4.887777841906994 -1.991388133314354 C 4.930931463660887 -1.8772717779776773 4.959820540997694 -1.7620754571330828 4.956093160043284 -1.639454373421552 C 4.93014839019094 -1.6185435418568979 4.904269090128321 -1.5975516096094262 4.878455639641148 -1.5764788847414195 C 4.673344690501484 -1.4093767216721735 4.463681386755946 -1.238592176211685 4.115407509973311 -1.093531809168967 C 4.0547376343940105 -1.1046400809989834 3.9950614407722074 -1.120618774348757 3.936958209310791 -1.1413127831338707 C 3.702943183313796 -1.2247101195786554 3.500457150339629 -1.3650681368056459 3.3029434585581687 -1.501976264215676 C 3.2082139840407167 -1.5676366671450008 3.114616973354484 -1.6325095952248017 3.01906252518515 -1.6901302549285129 C 3.0762556985419773 -1.7247716485470796 3.1133195147928876 -1.7976993193734367 3.1575381025337554 -1.9332049915752672 M 3.3419422130107663 -2.1213439827671605 C 3.3710862822036107 -2.126128829948076 3.4037327395367174 -2.1257388424035506 3.440189075189424 -2.1196715361819827 C 3.6332704085321375 -2.0875350625609483 3.813069666079553 -2.062358366657609 3.9934914037461153 -2.058728482589328 C 4.174213131831545 -2.0550835990001053 4.355062355844991 -2.073090523892544 4.549591142958734 -2.127396289467785 C 4.584585025319468 -2.1371609776018783 4.609649224815733 -2.131708651738986 4.623456283844047 -2.1182090828900098 C 4.637068349100097 -2.104897008052826 4.6385608014339565 -2.0852851344194523 4.633438465031817 -2.0677881932390845 C 4.624026265639892 -2.0356667191389937 4.59080982651094 -2.0009353283947675 4.529086797829233 -1.9819234355991266 C 4.339830342327064 -1.9236127979320221 4.1412666840795715 -1.9087257733957914 3.957800043661518 -1.9228103235615555 C 3.744034370937985 -1.9392197994735332 3.5511405316070626 -1.9949130207360302 3.4175922968883334 -2.067015717910505 C 3.3878632463787 -2.0830652053198433 3.3618840761048934 -2.1007871393143596 3.341942213010767 -2.1213439827671605 M 4.953850731662261 -1.5993456544191496 C 4.948990886876628 -1.5403450387886535 4.93747875455264 -1.486804248781521 4.920251804749253 -1.438505791344074 C 4.876025717247915 -1.3145347507476455 4.793865841280953 -1.2250326092789363 4.689911661383366 -1.1660019946065532 C 4.5851850061572 -1.1065288940663427 4.458251560174469 -1.0777598128970816 4.325468301023848 -1.075652380204546 C 4.274589925984152 -1.0748499058340792 4.222856578250688 -1.077962306429816 4.171175728840526 -1.084757089417133 C 4.496680332831221 -1.2269900467620376 4.699068868919255 -1.3918797804918066 4.897265038903636 -1.5533571232069727 C 4.916134436250316 -1.56872413241339 4.9349663347946375 -1.5840611425779212 4.953850731662261 -1.5993456544191496 M 2.829378583336097 -0.8753937760904611 C 2.6055557318200764 -0.8995280052882411 2.390290107002213 -0.9581386333742117 2.218223102501072 -1.0542405640579764 C 2.010344741747787 -1.1703443559196405 1.9059930745452038 -1.316012203560561 1.8851362406735357 -1.4521478556420124 C 1.8639269180597002 -1.5905709346673156 1.9295873209890249 -1.712644535864416 2.0451211310548434 -1.7873796489644418 C 2.18564414301221 -1.8782842456413507 2.4084620266250285 -1.907113324894386 2.684933196652055 -1.8164037219897402 C 2.775927790454624 -1.7865471755520872 2.863060007614292 -1.7451559975090332 2.948369782979347 -1.6969100383948872 C 2.895001487463063 -1.6894327772046491 2.8229587883723615 -1.701454893240709 2.7194095955402453 -1.7208942723832354 C 2.5265757542930967 -1.7570806166589623 2.3760030633037132 -1.7289640146507343 2.2788661656748608 -1.664916060222815 C 2.178489371522253 -1.5987306740604756 2.1315933692930047 -1.4914990988367762 2.1611649248327343 -1.3736178637433314 C 2.186484116185036 -1.2726635880344066 2.267916515386247 -1.1664144814324935 2.4140193491345245 -1.0778348105017974 C 2.565379514973431 -0.9860602416101756 2.734214122711289 -0.9466565000921108 2.902058762066889 -0.9074852511486657 C 2.962716824761621 -0.8933257033781841 3.0232548912888064 -0.8791886548891172 3.0826529942242997 -0.8626291837677069 C 2.998055390700252 -0.8621207497647241 2.913496403708706 -0.8663823764817185 2.829378583336094 -0.8753937760904611 M 2.908831045772792 -0.9365693222577374 C 2.7431538371935 -0.9752380872495809 2.5765016597528922 -1.0141318450555747 2.4294463564247155 -1.103288997542589 C 2.2906857881781875 -1.187421310513595 2.213685747415723 -1.2869956302957348 2.1901364995347317 -1.380862632358948 C 2.163669844830267 -1.4863617629136945 2.2054660099387906 -1.580858744856525 2.295230643024009 -1.6400393547383416 C 2.386375232036011 -1.7001424351581704 2.529283167823364 -1.7262341018390526 2.7139197708749956 -1.6915777086995423 C 2.8416481914677227 -1.6676009744716662 2.923815567195156 -1.6545888900533487 2.986131076954123 -1.6750557363804903 C 3.087107851944462 -1.615312644463299 3.185917196158494 -1.5468248318361626 3.2860014996527065 -1.4774520474733697 C 3.4851651387379303 -1.3393964567111771 3.689338617818219 -1.1978684768506085 3.927028526446326 -1.1131586823232835 C 3.9722930517932 -1.0970429607818781 4.018503316092765 -1.0837183750868276 4.065399107148328 -1.0732599566140895 C 3.9161988723252588 -1.0144243357139686 3.7423244255504495 -0.9602085672643872 3.5343485679110334 -0.9126750853950494 C 3.422047154608497 -0.887010905061052 3.3009335227517687 -0.8709914166935997 3.17691748359251 -0.8651266040047672 C 3.089770266911899 -0.8943381710418565 2.999443151791308 -0.9154199977276738 2.908831045772793 -0.9365693222577356 M 4.464858849149996 -0.6320715473481426 C 4.350217510580305 -0.6419187328474232 4.237608607098432 -0.6416037429076136 4.126957141099659 -0.6412812532073326 C 3.8637905461493465 -0.6405162776392235 3.6118210935832114 -0.6397888008734727 3.3724887374118127 -0.7787218636108504 C 3.3317800375716784 -0.8023686083779733 3.2896763822838175 -0.8223029717116273 3.2465677590927537 -0.8395974193592597 C 3.3484895039025218 -0.8475171664173251 3.4477338342239094 -0.8622766950255389 3.541008355209861 -0.88359851404645 C 3.7707485177380153 -0.9360968373480221 3.9592174983906623 -0.9966799024380375 4.118954896676405 -1.0626027969838692 C 4.187997691578445 -1.050543182145451 4.257685465881046 -1.0447908658636935 4.325940785933563 -1.0458783311320827 C 4.463561390588401 -1.0480607614293342 4.595422179201009 -1.0780523035554745 4.7046336911892235 -1.140075322656048 C 4.81462517826649 -1.2025333278639767 4.901577401174838 -1.2972853016628436 4.948413405320313 -1.4285836082400767 C 4.969135243503491 -1.4866692530930319 4.981937334628602 -1.5519246689568869 4.985349725643204 -1.624709844334281 C 5.053875037072701 -1.6796080909867834 5.123930299638414 -1.733583867101272 5.200180364353713 -1.7854447107627545 C 5.48495376922286 -1.979088526140842 5.733615827420995 -1.9957304946274403 5.899450530970191 -1.917245501291589 C 6.035691179698245 -1.8527700605167858 6.1178210566233195 -1.7224017242380372 6.1131637053704235 -1.5712890504946957 C 6.107786377112247 -1.3970846142591338 5.9870627328000445 -1.1981309684671162 5.707606658105301 -1.048810737476499 C 5.445107541836966 -0.9085577168961114 4.96972022482028 -0.7569125601592823 4.496365342891412 -0.6398038003944171 Z M 5.3068419577815655 -0.5504666536560823 L 5.296289794797949 -0.5284098581089509 C 5.245816406823723 -0.5445418428834774 5.231769355460316 -0.5845755642811623 5.241999028743652 -0.6332565095026634 C 5.251891212805762 -0.6803775045460609 5.2838701914568915 -0.7296284315634072 5.320896508905443 -0.7576025381226748 C 5.382822031119884 -0.8041685508911689 5.439317726752849 -0.7676222181128036 5.387944367522024 -0.6965619876438884 C 5.3542479437228865 -0.6499659758335063 5.329603730813034 -0.598247627620986 5.3068419577815655 -0.5504666536560823"
           fill="#004a80"
           transform="matrix(1,0,0,1,0,0)"
           fill-rule="nonzero"
           id="path2" />
      </g>
      <g
         clip-path="url(#a39345484-a7d9-4c0e-aaa4-118612680802f2669346-4069-4d0d-a339-6b0cc17258f5)"
         id="g4">
        <path
           d=" M 6.56184437534755 -0.4174434021703668 C 6.501861291095268 -0.3809195686734155 6.450052945757086 -0.3493830758901142 6.40502438388528 -0.3404358616474319 C 6.2627689272589615 -0.31213176562741207 6.113403697705515 -0.42315071988929454 6.071802526369254 -0.45709463578399845 C 5.982292885140073 -0.5377845586985153 5.885988460923572 -0.5706935076481301 5.783024249408245 -0.5765883193788497 C 5.680682518012065 -0.5824456323072109 5.572505972968938 -0.5615213005912985 5.457999630087737 -0.5347321561865526 C 5.402426404992786 -0.5217275715287055 5.359265283478421 -0.5184126774002342 5.3264538314149386 -0.5221700573965329 L 5.333826095958573 -0.5376195639681391 C 5.3561378833617415 -0.5844480683531419 5.380294611840936 -0.6351389493810462 5.412123595282633 -0.6791625433496513 C 5.48219385736929 -0.7760819479248262 5.393629185959536 -0.8494071060561792 5.30291958305489 -0.7814067778596998 C 5.260628433755238 -0.7495027968132861 5.224104600258286 -0.693209594713057 5.212787461706561 -0.6393388152451731 C 5.199872874174375 -0.5778257798566715 5.220309721459629 -0.5233100209882249 5.282970220200292 -0.5014482192133558 C 5.275275465956376 -0.48636620090486105 5.26758071171246 -0.47230415002051096 5.259653464893923 -0.4597945495537923 C 5.222604648163956 -0.40129641787489767 5.177231097310453 -0.37434977850024787 5.089356403864092 -0.4299755019184994 C 4.905019791231326 -0.5466567753364808 4.725588021947022 -0.5991775979194696 4.550828603436557 -0.6226668477166877 C 5.010331427774282 -0.7385606462851451 5.465574388164106 -0.8857209462599256 5.72162371042682 -1.0225315767838241 C 6.011834441637915 -1.1775966242957265 6.137275435286788 -1.3865624503174026 6.1429527539638284 -1.570479076363755 C 6.147977593479837 -1.7331863797962717 6.058910438118483 -1.8747818575010857 5.912185124251058 -1.9442146399476519 C 5.737815693285119 -2.0267420041777244 5.478263982882144 -2.0105425215589543 5.183470898022868 -1.8100814239121332 C 5.113430634978099 -1.7624504451566638 5.0489551942032955 -1.7133870121511077 4.986264696420746 -1.6635736030983876 C 4.986354693546406 -1.779759892325239 4.956558145192527 -1.893831249099085 4.91569945014296 -2.001895297735137 C 4.87568822802669 -2.107754416792523 4.824209872149262 -2.208603695854845 4.7763913993820015 -2.293740976729052 C 4.720203193928375 -2.3937652821394924 4.69414152628938 -2.4845123838464964 4.692071592399203 -2.57561947405614 C 4.690001658509027 -2.6671165518103095 4.7120209552538 -2.7596485965095683 4.751964679525827 -2.862732804192442 C 4.8213299641281475 -3.0417220876089193 4.864243593546948 -3.184772518845233 4.892390194597062 -3.3274104632556067 C 4.920514296365762 -3.4699209117379626 4.933878869526248 -3.6120263731548485 4.94413854185147 -3.789230713579072 C 4.962985439916735 -4.114607821641749 5.074941864237574 -4.365234817083458 5.191150652745842 -4.625394008084637 C 5.314401716336991 -4.901310195836761 5.4424151278276405 -5.187876043458632 5.471281705883034 -5.585955829533516 C 5.48283133700938 -5.745243242190959 5.458502114039337 -5.8388702519190785 5.330068715962275 -5.941691967985444 C 5.178753548686199 -6.0629480952911345 4.980347385408612 -6.320519868929594 4.7730315066907 -6.4397510609079385 C 4.6318710150932425 -6.520935968013585 4.486525657152603 -6.6045282982306315 4.348410068306635 -6.694960409997827 C 4.154601258198172 -6.8218638569386725 4.137621800490349 -7.017480109320804 4.113172581352759 -7.299366106408364 C 4.107637758124679 -7.363204067543076 4.101720447112545 -7.431429388553706 4.093193219456275 -7.505122034948171 C 4.0815910900066275 -7.605408831975118 4.059834284878361 -7.677879017412703 4.033690119874178 -7.7139978638441855 C 4.00738845990009 -7.7503267035688745 3.972259581850866 -7.7549840548217714 3.9421780425990645 -7.719720181084058 C 3.9155313936432807 -7.688498678240565 3.8897547169022086 -7.621510817707757 3.8693103698564815 -7.512861787754917 C 3.8602581589671963 -7.464780823371148 3.8525259059209214 -7.418372305572557 3.8449736471259666 -7.373073752323772 C 3.800095080463594 -7.103997346121796 3.761666307806842 -6.873567205630249 3.516214147090574 -6.690895539822191 C 3.3991503858885386 -6.603763322662523 3.277346776068417 -6.520373485978211 3.155333172955091 -6.436841153844936 C 2.939092579275912 -6.288795882134501 2.722162007633342 -5.9968002079311535 2.5259682736948923 -5.823443244628887 C 2.4104944617128465 -5.721424002932988 2.3982848516649957 -5.6410415701978085 2.428208895946892 -5.49393376854633 C 2.4709800299167304 -5.283662984202586 2.533738025543525 -5.093671552174195 2.6144504477394572 -4.915019757978942 C 2.6951703696958615 -4.7363604640232175 2.7938072194190453 -4.569055807421577 2.9083810601444924 -4.4041735734522796 C 3.00680791657447 -4.26245809957992 3.0653960453790248 -4.151214152503886 3.1014248946848473 -4.03355791022459 C 3.137513742074443 -3.915699174412559 3.151238303737568 -3.790573170703496 3.159848028759026 -3.6214385725467713 C 3.169440222402271 -3.4328795947684645 3.1834647744842623 -3.1850200109407956 3.3366848809201386 -3.051404278377822 C 3.387465759073703 -2.8487157518709205 3.401355315467205 -2.7166524697255774 3.3921231103266 -2.6150682141370343 C 3.382898404946466 -2.5135439566322644 3.350191949529586 -2.441508757302035 3.3081557920859694 -2.358853897143944 C 3.273199408527594 -2.2901185924212424 3.2507901242382937 -2.2099611525002123 3.2914763247970127 -2.1387734261032785 C 3.2046965963795127 -2.1061569678120584 3.1568331250494217 -2.0272969864526242 3.1291440093880776 -1.9424296969553971 C 3.084295441767591 -1.8049740870309359 3.0487390773714833 -1.7365462724875709 2.9927833644924786 -1.7097271290409388 L 2.9889659864124067 -1.7079871846115156 C 2.8939365214760877 -1.7634554130598632 2.7966646281587453 -1.811153889659578 2.694157902032189 -1.8447828156144714 C 2.4082820323737093 -1.9385748200729678 2.1763069412250027 -1.907750804534472 2.0288766498732427 -1.8123688508559859 C 1.9034581555057852 -1.7312364420736408 1.8325779192881904 -1.5978082035224581 1.8555721848942792 -1.447707997442789 C 1.8777339770880148 -1.303105115788843 1.9868779912319847 -1.1493150275571198 2.2037335652698387 -1.0281938959399204 C 2.3794529531206745 -0.9300520304078654 2.5986709517070996 -0.8702639399278462 2.8262211841775313 -0.8457247236645964 C 2.940990018675241 -0.8333501188863686 3.0579337837097307 -0.8299302281112944 3.172552622998007 -0.835067564034377 C 3.2366905745515857 -0.8133032591456386 3.2988035907778186 -0.7870240984529664 3.357526715270863 -0.7529151878278872 C 3.60374385155524 -0.6099847527591189 3.859658178129464 -0.6107272290458132 4.126957141099657 -0.6114997043743928 C 4.205682126770602 -0.6117321969490144 4.285412080344749 -0.6119496900026924 4.36612450254068 -0.608447301862431 C 3.902174320243266 -0.49975327334675956 3.45998844283459 -0.4287755402430333 3.244857813705216 -0.439357702268536 C 3.061706163226972 -0.4483724143554628 2.895218980516741 -0.41730840648187595 2.7520335535919367 -0.3906017594423181 C 2.607333175051859 -0.3636026217443664 2.390020115625234 -0.3023520779723743 2.298493038829177 -0.4569896391373929 C 2.3601335701456954 -0.4904085717990796 2.4060996020764573 -0.5590238803542356 2.432971243846392 -0.6896622080099633 C 2.444040890302552 -0.7434729893940757 2.4375460977341006 -0.7849691640837335 2.4210841234988214 -0.8120507991468733 C 2.4028072072294018 -0.8421173388777303 2.37131571300893 -0.8561418909597229 2.3368618134021553 -0.8479671520456211 C 2.3085127188193058 -0.8412548664234905 2.2786261733397675 -0.8194230636905084 2.253966960908971 -0.7810842881594171 C 2.2231129463285892 -0.7330258230570621 2.213520752685345 -0.6760276434724988 2.21753312453768 -0.6194644499952897 C 2.2211555088454884 -0.5684135804647452 2.235937536735117 -0.5175427051855213 2.256104392643393 -0.4740740934918186 C 2.187736576183802 -0.4494373803424381 2.101436832436488 -0.4610320100316132 2.0017800152891585 -0.4744340819944579 C 1.871884163920124 -0.49190102413293957 1.720344003829899 -0.512037880999328 1.5553417736930546 -0.46531437326092817 L 1.5552667760883385 -0.46555436559602015 C 1.5537068259102347 -0.46505188164442046 1.552214373576375 -0.46451189889046063 1.5506619231587426 -0.46400191517838874 C 1.4993485620116913 -0.44925738609111754 1.379509889435143 -0.39635407572407555 1.3257141075719747 -0.3714548709581873 C 1.2516614726748703 -0.33719596512367556 1.1877110151330834 -0.3075944105420598 1.1286354018978701 -0.2967122580976911 C 1.0184489210483403 -0.27647040458469796 0.8396771306855411 -0.33192363351210297 0.8378846879328157 -0.33247861578700455 L 0.8287874784807007 -0.30355953940830993 C 0.8351622748816061 -0.30155710336237895 0.9627781990672584 -0.2619133695092204 1.0731821729704658 -0.2619133695092204 C 1.0944664931890173 -0.2619133695092204 1.1151208335279503 -0.26339082232213595 1.1341327263235914 -0.26689321046239733 C 1.1969807190760458 -0.2784728406306298 1.2625436251192386 -0.30880187197799547 1.3384562006133136 -0.3439382497876915 C 1.4042515992311269 -0.37438727730260357 1.4788292173612476 -0.4088936752326804 1.5646264771569611 -0.4367177865825136 L 1.5645664790731875 -0.43692028011524897 C 1.723456404425634 -0.48155135468205756 1.8711566871543728 -0.461924481527741 1.9978126419996536 -0.4448850257361441 C 2.104729227283542 -0.4305079849119853 2.1974037674317612 -0.418065882289512 2.271133912628585 -0.444750030047655 C 2.3704757398361043 -0.2687306517779522 2.596661015900694 -0.33129365363248375 2.7574108818501113 -0.36128519575862583 C 2.899036358596811 -0.38770685190025933 3.0637010995124303 -0.4184258707921513 3.2434478587365443 -0.4095836531960728 C 3.4757829383878907 -0.3981465184768007 3.967294740418631 -0.48010390091102906 4.466988781123945 -0.6018850114497338 C 4.66357250260692 -0.5844030697903104 4.865818543245993 -0.5361871097180515 5.073464411424657 -0.40474630769185627 C 5.181775952156274 -0.3361909972204744 5.238316646352067 -0.3703749054502685 5.284890158881034 -0.44391005687483 C 5.294609848452297 -0.4592395672788889 5.303714557664884 -0.4761290278610524 5.312714270230868 -0.49406845490924667 C 5.350588060612717 -0.4879411506039055 5.400468967509683 -0.49059606581087145 5.464771913793638 -0.5056480850774792 C 5.577058327575231 -0.5319197460096801 5.682857448548844 -0.5524465904205957 5.781381801864952 -0.5468067705459125 C 5.873486360217327 -0.5415344389343408 5.959891100611244 -0.5131628450700756 6.040483526639629 -0.44481752789189954 L 6.040003541969444 -0.4442850448984119 C 6.04688082232195 -0.4380302446650539 6.194738600020594 -0.3054644785681102 6.356785924531605 -0.3054644785681102 C 6.374717851819329 -0.3054644785681102 6.392837273118842 -0.30709942635093057 6.410949194657886 -0.3106918116168522 C 6.46123508862032 -0.32068899232556625 6.5151808656929235 -0.353515443909993 6.577623871379908 -0.39155422902221826 C 6.6995999756908775 -0.4658168572125305 6.851410127158083 -0.5582364055047142 7.081082791841992 -0.5582364055047142 L 7.081082791841992 -0.5885654368520798 C 6.842912898543699 -0.5885654368520798 6.680460586967219 -0.4896585957519157 6.56184437534755 -0.4174434021703668 Z M 2.247322173131087 -0.6215643829273532 C 2.243722288104693 -0.6722252649133713 2.252069521509644 -0.722901146420333 2.279083658728539 -0.7649673029058359 C 2.2992280153553994 -0.7962863026354601 2.322439774015166 -0.813835742139128 2.3437540932756047 -0.8188830809365513 C 2.3656383943318895 -0.8240654154224636 2.384027807008383 -0.8157031824965699 2.395614936937087 -0.7966312916171558 C 2.4084620266250285 -0.7754894668475654 2.4131943754826426 -0.7414630535876752 2.403767176569774 -0.69562451758493 C 2.379827941144257 -0.579250734346286 2.338631756873466 -0.5171752169224115 2.283268525071721 -0.48637370066533236 C 2.264474125329758 -0.5267749103261279 2.250689565582859 -0.5740908991417886 2.247322173131087 -0.6215643829273532 Z M 3.330407581405365 -3.865518277096729 C 3.371476269748138 -4.092768519148294 3.457033537208759 -4.306256700734377 3.582917016725458 -4.499105541502468 C 3.5922617182731384 -4.453439499990571 3.591766734082009 -4.399478723397026 3.579579623315573 -4.332595859510823 C 3.5385034352123284 -4.107018064044436 3.6194933485457113 -3.9563703754503363 3.7453468290205247 -3.8754254606797836 C 3.8289766580399305 -3.8216296788166146 3.932383355423086 -3.7990029014736364 4.0327226507733345 -3.805895181347086 C 4.133174442530658 -3.8127874612205352 4.2308513229134705 -3.849311294717486 4.3028790224832285 -3.9137867354922897 C 4.40667570741091 -4.006701267975602 4.457171594666551 -4.156733976211026 4.38649385198169 -4.358612528586988 C 4.315171129896267 -4.562328522278506 4.297411697099394 -4.717888553981537 4.3150136349263635 -4.86378889419708 C 4.332668071076635 -5.010094221478093 4.385953869227731 -5.147557331163025 4.456504115984574 -5.31424700740599 C 4.508319961083226 -5.436658097824315 4.487778117151368 -5.4945262496235925 4.4658413177717815 -5.556331775670486 C 4.44763939910708 -5.607637637057066 4.441429597436551 -5.606475174183961 4.442434565339752 -5.660923435208163 C 4.444287006176251 -5.757422853196926 4.44714441491595 -5.905970608858962 4.387138831382254 -6.029319169336243 C 4.352834926984912 -6.099831917290727 4.298169172907031 -6.156965092563781 4.232418772852046 -6.191846478517441 C 4.169323288004027 -6.22531790950243 4.0960056296331455 -6.238464989609238 4.0205880383301995 -6.223330472977441 C 3.9710071218521 -6.213370791071086 3.926586040578498 -6.19859626294193 3.8745527024261674 -6.2031111187458645 C 3.7974026664542704 -6.209808404847051 3.734367179690025 -6.198723758869947 3.682378840100524 -6.17151462787879 C 3.6302255057806474 -6.144215499761971 3.5897792975570213 -6.100986880403362 3.557912815312966 -6.043456217825309 C 3.4903324737028982 -5.921457614232926 3.496294783277863 -5.853277291785126 3.5034045562049907 -5.736431023636769 C 3.507911912248454 -5.662303391134946 3.5098093516477826 -5.6152873927381535 3.4976747392046477 -5.540582278680015 C 3.485090141133213 -5.463132252289251 3.474147990605071 -5.39585190109805 3.5454032148462487 -5.310264634595542 C 3.564295111474343 -5.2875928586897345 3.585909421153648 -5.267096013320707 3.6060687773014517 -5.2455267022042324 C 3.6126610667560355 -5.15756201163221 3.6296105254219713 -5.0728897159072455 3.6685642813117387 -4.972827911694447 C 3.6975208564927917 -4.898437787576119 3.708305512051029 -4.837509733504407 3.69964328870627 -4.7788991054184375 C 3.690966065840567 -4.720168481164921 3.6626394705391325 -4.662810313077717 3.6134410418450873 -4.595634958533118 C 3.606737166645001 -4.586480225007602 3.600119585020602 -4.57726261131317 3.5935891758766254 -4.5679833416741396 C 3.546738172210203 -4.672320009355773 3.4250395590366858 -4.746462641378537 3.333677476971005 -4.811230572811734 C 3.136036289261527 -4.951056107045238 3.089762767151426 -5.055190281194143 3.01865003835921 -5.215235169659224 C 2.9910959183863564 -5.277258188759797 2.9598669157823916 -5.347530944379187 2.9151758431318098 -5.431018277949633 C 2.8664348998265354 -5.522065370075503 2.859737613725349 -5.585295850612012 2.9440874197500335 -5.656393579883284 C 3.047951602521959 -5.743953283389837 3.136898761715767 -5.940394509423852 3.2294608054569114 -6.033639031367917 C 3.3820809310550555 -6.187399120557751 3.5452382201158725 -6.35764368326428 3.801085048845852 -6.538072920691315 C 3.914518925979607 -6.618072865642441 3.972424576581242 -6.6706386867882586 4.086863421618199 -6.589056292377613 C 4.234721199316843 -6.483647158948527 4.387266327310272 -6.375650608156719 4.523071989930969 -6.264631653894837 C 4.659357637221852 -6.1532152123279555 4.777336369201429 -5.90954799460394 4.91284204140326 -5.788291867298251 C 5.016728723456601 -5.69533983601258 5.023763498779012 -5.582663434686462 4.985387224445562 -5.453990044274306 C 4.951585803999821 -5.340511168577722 4.912242060565528 -5.230197191800173 4.885565412567858 -5.114333392273602 C 4.849604061106279 -4.958180879493309 4.793123364994258 -4.899705247095828 4.686349275159332 -4.786638858225184 C 4.469928687228833 -4.557476177253347 4.5999595342863575 -4.267715431670552 4.6829068851028435 -4.012836072041416 C 4.7203156903354495 -3.897924742094744 4.752189672339975 -3.7573942303769052 4.762584340353687 -3.6166912241682185 C 4.7727315162718345 -3.4793181116089453 4.762419345623311 -3.3419599985706157 4.716738304590471 -3.228631118083463 C 4.6470655298088115 -3.055776638732799 4.509542422040106 -2.974621730669039 4.330538139102686 -2.961422152238929 C 4.2264329897370905 -2.953811587753039 4.122115379191558 -2.9494571003654935 4.017738129350959 -2.9483650692577807 C 3.9206087314825897 -2.9473751008755222 3.8211694073889393 -2.9493100390772087 3.7257649544290383 -2.955227350089343 C 3.5560528747159967 -2.9657495140310726 3.4413365385415884 -3.0036758027362236 3.3633090305945075 -3.0680687461458387 C 3.293996244315488 -3.344734909945127 3.284899034863373 -3.613668820698142 3.330407581405365 -3.86551827709673 Z M 3.6062412717923005 -4.533919429611882 C 3.6164430216438186 -4.548769056530137 3.626866355070113 -4.563465231603239 3.6375077731986254 -4.578003021664264 C 3.689646107997556 -4.64917574854025 3.7197576462912436 -4.710643785365921 3.729199844725055 -4.774579243386764 C 3.7386645424402816 -4.838627197814683 3.727257406762897 -4.904227602660235 3.6963733931406284 -4.983575068450326 C 3.6649193977225147 -5.0643549884905035 3.648262429714973 -5.13510772878008 3.6398776975076648 -5.206197958290881 C 3.661731999522062 -5.177878862749918 3.6819213547117533 -5.144294935357855 3.6963358943382705 -5.101276309292452 C 3.713142857555246 -5.051125411018506 3.7317872620877752 -5.009029255491117 3.7600538593054362 -4.9706004828343655 C 3.7883729548463996 -4.9320817130519545 3.8260742507374004 -4.859499031207294 3.8808300019409403 -4.8248351383073125 C 3.9161763730438426 -4.8024633528203715 3.9548076392333282 -4.787868818942533 3.9961613184740243 -4.786841351757916 C 4.037612494600852 -4.785806384812829 4.0812910995877605 -4.798398482644735 4.126402158824755 -4.830399960577278 C 4.176673053266246 -4.8660613216199895 4.212206918380939 -4.938584005380877 4.239266054162664 -4.977207771809892 C 4.266287691142031 -5.015801539197019 4.284549607890508 -5.058197685143275 4.3003591029647525 -5.1099985307209845 C 4.35197245453067 -5.274303283133965 4.376414173907788 -5.364000418374938 4.354732366384239 -5.538827334729646 C 4.3477050908223 -5.595443026530157 4.340797811427906 -5.620094739200482 4.32951817167854 -5.672473066334509 C 4.318156034563986 -5.725188882689759 4.30239153805257 -5.745288240753789 4.2777098263403595 -5.792559231006619 C 4.180205440448395 -5.979295766990315 4.012960781930527 -5.95006170067181 3.837316391684408 -5.9270749348261935 C 3.6106511309496314 -5.897353384077031 3.608033714545024 -5.744703259437 3.605978780175791 -5.563554045004688 C 3.605683807749948 -5.538582075293846 3.6052238123968543 -5.513612327540043 3.60459882424901 -5.488646437413949 C 3.602813881256753 -5.4159362596411365 3.6012539310786496 -5.352075799225009 3.603533858262032 -5.291215242997543 C 3.5907617661788067 -5.3043623231043515 3.5786271537356713 -5.31692442189437 3.568307483326677 -5.329299026672598 C 3.50576698075356 -5.404416627556676 3.515696663618029 -5.465494676837821 3.527126298576829 -5.535797431499098 C 3.5395909004807162 -5.612527480884584 3.5378359565303494 -5.632206852362202 3.533201104558868 -5.708366919951841 C 3.5263688227691916 -5.820563336607773 3.5206465055293203 -5.914662831245606 3.5839669831914884 -6.028974180354546 C 3.6130585540610323 -6.081480003416591 3.6495373889951535 -6.120711250443808 3.6961708996078935 -6.14512297077904 C 3.7429844044719536 -6.169624688239931 3.80062756345708 -6.179524372062513 3.8719802845843896 -6.173337069673399 C 3.9283784833312216 -6.168439726085409 3.973107054784162 -6.183431747268244 4.026430351737616 -6.194133905461293 C 4.094640673227303 -6.207828468082532 4.161103550527095 -6.195851350609303 4.218401720530526 -6.165454821417692 C 4.278647296399315 -6.1334908422875065 4.328775695391846 -6.081075016351122 4.360267189612318 -6.016352083480753 C 4.417212870873581 -5.899288322278717 4.41443795949907 -5.755075428169297 4.412638016985873 -5.661395920117877 C 4.411565551238427 -5.602920287720396 4.4181653404534815 -5.601405336105121 4.437679717200724 -5.546409592566489 C 4.457644079576264 -5.490168888789561 4.476325982911153 -5.437513070518083 4.42904749289785 -5.325811638053279 C 4.357492278237807 -5.156729538219857 4.303411505476715 -5.017136496560974 4.28533708274003 -4.867291282337343 C 4.267202661919573 -4.71704108104824 4.285329582979559 -4.557326182043912 4.358332251410632 -4.348795342129594 C 4.4243151440402375 -4.160333861237419 4.378356611869946 -4.021325800895325 4.283012156993818 -3.9359785267279115 C 4.216121793347143 -3.87609293936176 4.124872207688537 -3.842134023946114 4.030735214248345 -3.8356767301800208 C 3.936470724880136 -3.8291969371325125 3.8395588200654323 -3.8503012630997437 3.761471314034578 -3.900534658738878 C 3.6450900310354633 -3.9753822682459776 3.5703924167377963 -4.115837782359099 3.6089111865202077 -4.327338527420194 C 3.6245856859059633 -4.413390779071943 3.622568250339089 -4.479403670743435 3.606241271792299 -4.533919429611882 Z M 3.6351528484105238 -5.258021303150004 C 3.6304804976366833 -5.328624048230148 3.6322804401498803 -5.401986705163861 3.6343953726028864 -5.487948959689952 C 3.6350028532010903 -5.513088156790932 3.6354903376317482 -5.538174855568613 3.6357678287691995 -5.563321552430066 C 3.63768026768947 -5.732531148191507 3.6401476888846442 -5.871164220510018 3.841171268566838 -5.897525878567879 C 3.999881199667965 -5.918300215074358 4.162573503579539 -5.948696744265969 4.251310669480141 -5.778774671259721 C 4.274507428618964 -5.734346090225648 4.289446951478498 -5.7166991538358465 4.300306604641452 -5.666278264184923 C 4.311241255409122 -5.615512385552302 4.318088536719742 -5.591355657073105 4.325048314437436 -5.535204950421839 C 4.3460851425604226 -5.365627866397286 4.321905914799814 -5.277985665525546 4.271845013651527 -5.118638254784329 C 4.256927990073409 -5.069762315790564 4.239866035000397 -5.029991086009388 4.214839334306491 -4.994262227122432 C 4.189850132414943 -4.958578366798306 4.156566195441745 -4.888365609262689 4.109107711177123 -4.8546916847449655 C 4.069711469419529 -4.826747577227585 4.032137669456546 -4.815737928855198 3.9968662959583603 -4.816622900590852 C 3.9614824260531 -4.817500372566036 3.9278684996191506 -4.830347462253979 3.896721994380374 -4.850064332533954 C 3.845378634191436 -4.882568294418099 3.810249756142212 -4.952706054349001 3.784128090419444 -4.988232419703222 C 3.7579314270919593 -5.023841282422632 3.740479484474422 -5.06338751938966 3.7246099913164037 -5.110733507247206 C 3.7025681952902145 -5.176513906344077 3.6687967738863603 -5.221144980910886 3.6351528484105238 -5.258021303150004 Z M 3.157538102533757 -1.9332049915752645 C 3.1831572843049245 -2.01174998299489 3.2270833813873976 -2.08605760974803 3.3091307609472844 -2.1133192390624886 C 3.332695008349219 -2.0847151526236036 3.3653864642451556 -2.061293400670631 3.4034552483992675 -2.040736557217829 C 3.5403558760488267 -1.9668189180092153 3.7375545778904775 -1.9097682401013492 3.955580114561909 -1.8930287747286183 C 4.14234664958749 -1.8786967324672883 4.344697686873167 -1.893913746464273 4.537854017820597 -1.9534243458068419 C 4.610436699665257 -1.975781131772841 4.65018543016502 -2.0189422532872046 4.662065050752118 -2.0595009579179058 C 4.67032978679188 -2.0877150568122644 4.6660024249997365 -2.1184340757041573 4.644365616039016 -2.13958340023422 C 4.623418785041689 -2.160065246082304 4.588222409148221 -2.1691249567320607 4.541641396858782 -2.156127871834687 C 4.350082514891814 -2.102654579671799 4.172015702013351 -2.084917646156339 3.9940763850629053 -2.0885025316617885 C 3.8158220781726504 -2.09209491692771 3.6371777837378696 -2.1171366171425614 3.445093918537887 -2.1491080960332187 C 3.3985054064879763 -2.1568553486004367 3.35728672293577 -2.1560903730323275 3.3209203844087236 -2.147653142501718 C 3.280961660615755 -2.2102161443562496 3.303618437000619 -2.283991288115904 3.3348024410417536 -2.3453018299716684 C 3.378248553454041 -2.4307391012647424 3.412079972941669 -2.5053992167600496 3.4218071622734034 -2.612383299888184 C 3.4307693760370284 -2.711050148653255 3.418897255210402 -2.836438643978826 3.374543671781044 -3.022350206310638 C 3.4556085827191443 -2.9676694527118146 3.567760000812247 -2.9351279920253113 3.724010010478671 -2.925453301016878 C 3.8196244567317787 -2.9195209904838 3.9197762580702364 -2.9175860522821138 4.017970621925592 -2.918591020185315 C 4.129079573313136 -2.9197234840165347 4.237016126021169 -2.9245908285626374 4.332638072034748 -2.931648103166464 C 4.523356980828891 -2.9457026542903417 4.670344786312823 -3.033727342946136 4.744427420251814 -3.217538972345886 C 4.7919909011630395 -3.335540203606878 4.802813055523634 -3.477428171970087 4.792373388947093 -3.6187911571002793 C 4.781791226921591 -3.762119079474044 4.749354762881691 -3.9051545111894153 4.711300978248522 -4.022053277661075 C 4.632800985391727 -4.263230574908501 4.503160125878728 -4.549218940974054 4.708083581006182 -4.766209510700398 C 4.81875754628637 -4.8834007678304525 4.877360674611868 -4.945731277110363 4.9146569834374 -5.107673604974772 C 4.941161136944222 -5.222757429412291 4.980407383492383 -5.332681418645313 5.014013810165862 -5.4454628166180346 C 5.055764976711556 -5.5854308463005 5.045475305344447 -5.709566881627304 4.932708906892669 -5.810483658533871 C 4.795845778045468 -5.93295474703597 4.677349562593347 -6.177109449190641 4.541993885600949 -6.287760915189413 C 4.406165723698837 -6.398802368732711 4.2531406110352235 -6.5071439085062135 4.104157869265832 -6.613348016545296 C 3.9793768545384642 -6.702302675499576 3.9076191463456857 -6.649729354593286 3.7839030976052936 -6.562484641026543 C 3.5260388333084394 -6.380622949349423 3.361869076583949 -6.209365918979222 3.2083189806873205 -6.05466835973043 C 3.116289419939663 -5.961956320779851 3.027859744218399 -5.766040077978853 2.9248055355774123 -5.679170352435694 C 2.8291235914800597 -5.598502928802591 2.8333384568651283 -5.5207679115139054 2.8888891826786645 -5.417001225628111 C 2.9332727651499084 -5.334076374093041 2.9641642785326483 -5.2645610942812855 2.991425907847108 -5.203205553862691 C 3.0645635719666706 -5.038608310791317 3.1121570519197825 -4.9315117312561085 3.3165030254909187 -4.7869388486440485 C 3.409020070669234 -4.72098595505633 3.532203636416139 -4.647765793571578 3.5722823563766535 -4.5370468297285615 C 3.4363941963907676 -4.3352882735201455 3.344417133966412 -4.110595449789413 3.3010835179612 -3.870768109426885 C 3.257344914890518 -3.6287433392461628 3.263157229256049 -3.3714415569846823 3.32331280799918 -3.1068950061075853 C 3.210561409068345 -3.235748390771059 3.1979168129131375 -3.460178722885284 3.1896370773524323 -3.622953524162046 C 3.1809148559238998 -3.7943380504602664 3.166905303362851 -3.921451490694318 3.129938983998072 -4.042197634287936 C 3.086912858172197 -4.18270564672436 3.0158826267451695 -4.3010443672065755 2.9328902773658547 -4.421205529483405 C 2.819306405022666 -4.584715307286389 2.721562026795609 -4.75047501323087 2.641674578251558 -4.927281866350096 C 2.5617871297075068 -5.104111218750736 2.4996966127626896 -5.292047716409895 2.457412963223509 -5.499896078121294 C 2.4296938485202784 -5.636189225172649 2.438678561565319 -5.706574477199116 2.5457151430167544 -5.8011389569861915 C 2.7366065463017453 -5.969816069754145 2.94851977818878 -6.255294452107627 3.160170518459307 -6.4036697132788145 C 3.1600580220522323 -6.40378220968589 3.1638079022880587 -6.406482123455685 3.172155135693009 -6.412196940935083 C 3.168165263122089 -6.40945952836293 3.164167890790698 -6.406467123934741 3.160170518459307 -6.4036697132788145 C 3.1609054949855286 -6.402934736752593 3.3269576915884036 -6.512873725506558 3.5339735798874488 -6.666948804636203 C 3.789145430174979 -6.856857739299407 3.828489173609272 -7.092732705893374 3.874417706737677 -7.368168908975311 C 3.88200746433499 -7.413699954798719 3.889784715944094 -7.460333465411458 3.898634433300645 -7.5073719630896685 C 3.918051313161756 -7.610568667179617 3.9413755682285974 -7.672831678615282 3.9648423187444 -7.700333300264835 C 3.9821142671106173 -7.720575153777827 3.9946913654215805 -7.716937769949076 4.009510892113568 -7.696470923621933 C 4.03279764837805 -7.664304450959013 4.052514518658026 -7.596851605276963 4.063516667269942 -7.501739642975457 C 4.071871400435365 -7.429479450831078 4.077818710489385 -7.3609316401201665 4.083383532759353 -7.296793688566588 C 4.108575228183636 -7.006372964062287 4.126072169364003 -6.80483940066802 4.332053090717959 -6.66997120810628 C 4.469381204714402 -6.580041580290685 4.61589652528862 -6.495781771391661 4.758196980477769 -6.41394438512498 C 4.964342896562103 -6.295388171589086 5.16161659600847 -6.038461377351188 5.311379312866914 -5.918450210283792 C 5.431997960532514 -5.821883294450785 5.452322311410694 -5.737488489863271 5.4414926572896265 -5.588055762465579 C 5.412993567497344 -5.195120812074251 5.286097620316971 -4.911044884928968 5.163926522233739 -4.637543620048716 C 5.046570270373309 -4.3748120112057585 4.933511381263136 -4.121717594568876 4.9143494932580625 -3.790865661361893 C 4.904172318298029 -3.61520627159483 4.890927741305089 -3.47435327017671 4.863066131152897 -3.333132780495479 C 4.835219520521649 -3.1920397867422663 4.792763376491619 -3.0505343061631125 4.724155567696935 -2.8734874607087937 C 4.682861886540013 -2.7669233641670727 4.660115113029488 -2.6708289332437785 4.662282543805796 -2.575034492739352 C 4.664464974103048 -2.478842564929926 4.691689104615148 -2.383565607898044 4.750337231503477 -2.279138943090744 C 4.7976232212772505 -2.194954131796436 4.848456597754116 -2.095402311295711 4.887777841906995 -1.9913881333143513 C 4.930931463660888 -1.8772717779776746 4.959820540997696 -1.762075457133081 4.9560931600432845 -1.6394543734215512 C 4.93014839019094 -1.6185435418568952 4.904269090128321 -1.5975516096094244 4.878455639641148 -1.5764788847414186 C 4.673344690501485 -1.4093767216721718 4.463681386755946 -1.238592176211684 4.115407509973311 -1.093531809168966 C 4.054737634394012 -1.1046400809989816 3.995061440772208 -1.1206187743487552 3.9369582093107924 -1.1413127831338699 C 3.702943183313797 -1.2247101195786527 3.5004571503396305 -1.365068136805644 3.3029434585581696 -1.501976264215675 C 3.208213984040718 -1.567636667144999 3.1146169733544844 -1.6325095952247999 3.0190625251851504 -1.690130254928512 C 3.0762556985419782 -1.7247716485470779 3.113319514792889 -1.797699319373434 3.1575381025337563 -1.9332049915752654 Z M 3.341942213010767 -2.1213439827671587 C 3.3710862822036125 -2.1261288299480743 3.4037327395367187 -2.125738842403547 3.4401890751894255 -2.119671536181979 C 3.633270408532139 -2.0875350625609457 3.8130696660795538 -2.0623583666576053 3.993491403746117 -2.0587284825893253 C 4.174213131831545 -2.0550835990001017 4.355062355844993 -2.0730905238925414 4.549591142958735 -2.127396289467783 C 4.584585025319469 -2.1371609776018756 4.609649224815733 -2.1317086517389834 4.623456283844048 -2.118209082890008 C 4.637068349100098 -2.1048970080528235 4.638560801433957 -2.0852851344194496 4.633438465031817 -2.0677881932390827 C 4.624026265639893 -2.035666719138992 4.590809826510941 -2.0009353283947657 4.529086797829235 -1.9819234355991249 C 4.3398303423270645 -1.9236127979320203 4.141266684079572 -1.9087257733957879 3.957800043661519 -1.9228103235615537 C 3.744034370937986 -1.9392197994735296 3.551140531607064 -1.9949130207360284 3.4175922968883343 -2.067015717910503 C 3.387863246378701 -2.0830652053198397 3.361884076104894 -2.100787139314357 3.341942213010768 -2.1213439827671587 Z M 4.953850731662261 -1.5993456544191478 C 4.948990886876629 -1.5403450387886517 4.937478754552642 -1.4868042487815192 4.920251804749254 -1.4385057913440722 C 4.876025717247915 -1.3145347507476437 4.793865841280953 -1.2250326092789336 4.689911661383366 -1.1660019946065505 C 4.585185006157201 -1.106528894066341 4.458251560174469 -1.077759812897079 4.325468301023848 -1.0756523802045441 C 4.274589925984152 -1.0748499058340766 4.222856578250688 -1.0779623064298134 4.171175728840526 -1.0847570894171312 C 4.496680332831221 -1.2269900467620358 4.699068868919256 -1.391879780491804 4.897265038903637 -1.55335712320697 C 4.916134436250316 -1.5687241324133874 4.9349663347946375 -1.5840611425779185 4.953850731662261 -1.5993456544191478 Z M 2.829378583336097 -0.8753937760904584 C 2.6055557318200764 -0.8995280052882393 2.390290107002213 -0.958138633374209 2.218223102501072 -1.0542405640579737 C 2.010344741747787 -1.1703443559196378 1.9059930745452038 -1.3160122035605593 1.8851362406735357 -1.4521478556420098 C 1.8639269180597002 -1.590570934667313 1.9295873209890249 -1.7126445358644142 2.0451211310548434 -1.7873796489644391 C 2.18564414301221 -1.8782842456413489 2.4084620266250285 -1.9071133248943832 2.684933196652055 -1.8164037219897375 C 2.775927790454624 -1.7865471755520854 2.863060007614292 -1.7451559975090305 2.948369782979347 -1.6969100383948845 C 2.895001487463063 -1.6894327772046465 2.8229587883723615 -1.701454893240708 2.7194095955402453 -1.7208942723832328 C 2.5265757542930967 -1.7570806166589596 2.3760030633037132 -1.7289640146507317 2.2788661656748608 -1.6649160602228124 C 2.178489371522253 -1.598730674060473 2.1315933692930047 -1.4914990988367745 2.1611649248327343 -1.3736178637433287 C 2.186484116185036 -1.272663588034404 2.267916515386247 -1.1664144814324917 2.4140193491345245 -1.0778348105017947 C 2.565379514973431 -0.9860602416101747 2.734214122711289 -0.9466565000921081 2.902058762066889 -0.9074852511486631 C 2.962716824761621 -0.8933257033781823 3.0232548912888064 -0.8791886548891146 3.0826529942242997 -0.8626291837677043 C 2.998055390700252 -0.8621207497647223 2.913496403708706 -0.8663823764817167 2.829378583336094 -0.8753937760904593 Z M 2.9088310457727915 -0.9365693222577338 C 2.743153837193499 -0.9752380872495783 2.5765016597528922 -1.014131845055572 2.429446356424714 -1.1032889975425855 C 2.2906857881781866 -1.1874213105135922 2.2136857474157217 -1.286995630295733 2.1901364995347308 -1.3808626323589452 C 2.1636698448302667 -1.4863617629136918 2.2054660099387897 -1.5808587448565232 2.2952306430240084 -1.640039354738338 C 2.38637523203601 -1.7001424351581678 2.5292831678233627 -1.72623410183905 2.7139197708749947 -1.6915777086995387 C 2.841648191467722 -1.6676009744716636 2.9238155671951547 -1.6545888900533452 2.9861310769541216 -1.6750557363804877 C 3.0871078519444617 -1.6153126444632973 3.1859171961584933 -1.5468248318361608 3.286001499652706 -1.477452047473367 C 3.48516513873793 -1.3393964567111736 3.689338617818218 -1.197868476850605 3.9270285264463256 -1.1131586823232817 C 3.9722930517931996 -1.0970429607818764 4.0185033160927635 -1.083718375086825 4.065399107148327 -1.073259956614086 C 3.916198872325258 -1.014424335713966 3.742324425550449 -0.9602085672643854 3.534348567911032 -0.9126750853950467 C 3.4220471546084967 -0.8870109050610484 3.3009335227517673 -0.8709914166935979 3.1769174835925096 -0.8651266040047645 C 3.0897702669118985 -0.8943381710418548 2.9994431517913065 -0.9154199977276711 2.908831045772792 -0.9365693222577338 Z M 4.464858849149996 -0.63207154734814 C 4.350217510580304 -0.6419187328474205 4.237608607098431 -0.6416037429076109 4.126957141099657 -0.64128125320733 C 3.863790546149345 -0.6405162776392217 3.6118210935832105 -0.6397888008734709 3.3724887374118113 -0.7787218636108477 C 3.331780037571678 -0.8023686083779706 3.289676382283816 -0.8223029717116246 3.2465677590927533 -0.8395974193592579 C 3.348489503902521 -0.8475171664173233 3.447733834223908 -0.8622766950255372 3.5410083552098603 -0.8835985140464473 C 3.7707485177380144 -0.9360968373480194 3.959217498390661 -0.9966799024380357 4.118954896676405 -1.0626027969838674 C 4.1879976915784445 -1.0505431821454492 4.257685465881046 -1.0447908658636909 4.325940785933563 -1.045878331132081 C 4.463561390588401 -1.0480607614293307 4.595422179201008 -1.0780523035554728 4.704633691189223 -1.1400753226560445 C 4.814625178266489 -1.202533327863974 4.901577401174837 -1.297285301662841 4.948413405320312 -1.428583608240075 C 4.96913524350349 -1.4866692530930292 4.9819373346286016 -1.551924668956885 4.985349725643204 -1.6247098443342791 C 5.0538750370727 -1.6796080909867808 5.123930299638413 -1.7335838671012702 5.200180364353712 -1.7854447107627527 C 5.484953769222858 -1.9790885261408393 5.733615827420993 -1.9957304946274377 5.89945053097019 -1.9172455012915872 C 6.035691179698245 -1.852770060516784 6.117821056623319 -1.7224017242380345 6.113163705370423 -1.571289050494694 C 6.107786377112247 -1.397084614259132 5.9870627328000445 -1.1981309684671135 5.7076066581053 -1.0488107374764963 C 5.445107541836965 -0.9085577168961088 4.9697202248202785 -0.7569125601592805 4.496365342891412 -0.6398038003944144 Z M 5.306841957781565 -0.5504666536560805 L 5.296289794797948 -0.5284098581089491 C 5.245816406823722 -0.5445418428834747 5.231769355460316 -0.5845755642811596 5.241999028743651 -0.6332565095026608 C 5.251891212805761 -0.6803775045460583 5.283870191456891 -0.7296284315634054 5.320896508905443 -0.7576025381226721 C 5.382822031119884 -0.8041685508911671 5.439317726752848 -0.7676222181128001 5.3879443675220235 -0.6965619876438867 C 5.354247943722885 -0.6499659758335046 5.329603730813033 -0.5982476276209843 5.306841957781565 -0.5504666536560805 Z"
           fill="none"
           transform="matrix(1,0,0,1,0,0)"
           fill-rule="nonzero"
           stroke-dasharray="none"
           stroke-miterlimit="10"
           stroke-linejoin="miter"
           stroke-linecap="butt"
           stroke-width="0.02382673901844242"
           stroke="#004a80"
           id="path3"
           style="stroke:#6d435a;stroke-opacity:1" />
      </g>
    </g>
  </g>
  <defs
     id="defs7">
    <clipPath
       id="SvgjsClipPath1002">
      <path
         d=" M 0.8168741089714793 -7.7557603504221735 h 6.276122052379733 v 7.5057603504221735 h -6.276122052379733 Z"
         id="path6" />
    </clipPath>
    <clipPath
       id="a39345484-a7d9-4c0e-aaa4-118612680802f2669346-4069-4d0d-a339-6b0cc17258f5">
      <path
         d=" M 0.8138554553816404 -0.25000374988023655 L 7.09299991123145 -0.25000374988023655 L 7.09299991123145 -7.755764029910824 L 0.8138554553816404 -7.755764029910824 Z"
         id="path7" />
    </clipPath>
  </defs>
</svg>
